<svg xmlns="http://www.w3.org/2000/svg" version="1.1" xmlns:xlink="http://www.w3.org/1999/xlink" xmlns:svgjs="http://svgjs.dev/svgjs" width="1500" height="937" viewBox="0 0 1500 937"><g transform="matrix(1,0,0,1,0,0)"><svg viewBox="0 0 512 320" data-background-color="#000000" preserveAspectRatio="xMidYMid meet" height="937" width="1500" xmlns="http://www.w3.org/2000/svg" xmlns:xlink="http://www.w3.org/1999/xlink"><g id="tight-bounds" transform="matrix(1,0,0,1,0,0)"><svg viewBox="0 0 512 320" height="320" width="512"><rect width="512" height="320" fill="url(#bead6968-d6b5-46ec-b2ed-573dbd6d9973)" mask="url(#9454ff52-901e-4328-8af3-a4260cd81927)" data-fill-palette-color="tertiary"></rect><g><svg></svg></g><g><svg viewBox="0 0 512 320" height="320" width="512"><g><path d="M96 160c0-88.366 71.634-160 160-160 88.366 0 160 71.634 160 160 0 88.366-71.634 160-160 160-88.366 0-160-71.634-160-160zM256 300.734c77.725 0 140.734-63.009 140.734-140.734 0-77.725-63.009-140.734-140.734-140.734-77.725 0-140.734 63.009-140.734 140.734 0 77.725 63.009 140.734 140.734 140.734z" fill="url(#bead6968-d6b5-46ec-b2ed-573dbd6d9973)" fill-rule="nonzero" stroke="none" stroke-width="1" stroke-linecap="butt" stroke-linejoin="miter" stroke-miterlimit="10" stroke-dasharray="" stroke-dashoffset="0" font-family="none" font-weight="none" font-size="none" text-anchor="none" style="mix-blend-mode: normal" data-fill-palette-color="tertiary"></path></g><g transform="matrix(1,0,0,1,199.38661341550832,80)"><svg viewBox="0 0 113.22677316898336 160" height="160" width="113.22677316898336"><g><svg viewBox="0 0 113.22677316898336 160" height="160" width="113.22677316898336"><g><svg viewBox="0 0 168.551872 238.1795291450338" height="160" width="113.22677316898336"><g><svg viewBox="0 0 168.551872 238.1795291450338" height="238.1795291450338" width="168.551872"><g id="textblocktransform"><svg viewBox="0 0 168.551872 238.1795291450338" height="238.1795291450338" width="168.551872" id="textblock"><g><svg viewBox="0 0 168.551872 159.0112" height="159.0112" width="168.551872"><g transform="matrix(1,0,0,1,0,0)"><svg width="168.551872" viewBox="-0.8 -33.7 37.099999999999994 35" height="159.0112" data-palette-color="url(#3f897bfa-6aa0-4060-8417-06bfec66697c)"><g class="wordmark-text-0" data-fill-palette-color="primary" id="text-0"></g></svg></g></svg></g><g transform="matrix(1,0,0,1,0,196.5499280512)"><svg viewBox="0 0 168.551872 41.62960109383379" height="41.62960109383379" width="168.551872"><g transform="matrix(1,0,0,1,0,0)"><svg width="168.551872" viewBox="0.35 -31.55 149.18 36.85" height="41.62960109383379" data-palette-color="url(#c8ab3f05-8c3b-4570-bd5f-81a71baeb04c)"></svg></g></svg></g></svg></g></svg></g></svg></g></svg></g></svg></g></svg></g><defs></defs><mask id="08220adc-165a-43b0-a224-a5e05f087178"><g id="SvgjsG2998"><svg viewBox="0 0 512 320" height="320" width="512"><g><svg></svg></g><g><svg viewBox="0 0 512 320" height="320" width="512"><g><path d="M96 160c0-88.366 71.634-160 160-160 88.366 0 160 71.634 160 160 0 88.366-71.634 160-160 160-88.366 0-160-71.634-160-160zM256 300.734c77.725 0 140.734-63.009 140.734-140.734 0-77.725-63.009-140.734-140.734-140.734-77.725 0-140.734 63.009-140.734 140.734 0 77.725 63.009 140.734 140.734 140.734z" fill="black" fill-rule="nonzero" stroke="none" stroke-width="1" stroke-linecap="butt" stroke-linejoin="miter" stroke-miterlimit="10" stroke-dasharray="" stroke-dashoffset="0" font-family="none" font-weight="none" font-size="none" text-anchor="none" style="mix-blend-mode: normal"></path></g><g transform="matrix(1,0,0,1,199.38661341550832,80)"><svg viewBox="0 0 113.22677316898336 160" height="160" width="113.22677316898336"><g><svg viewBox="0 0 113.22677316898336 160" height="160" width="113.22677316898336"><g><svg viewBox="0 0 168.551872 238.1795291450338" height="160" width="113.22677316898336"><g><svg viewBox="0 0 168.551872 238.1795291450338" height="238.1795291450338" width="168.551872"><g id="SvgjsG2997"><svg viewBox="0 0 168.551872 238.1795291450338" height="238.1795291450338" width="168.551872" id="SvgjsSvg2996"><g><svg viewBox="0 0 168.551872 159.0112" height="159.0112" width="168.551872"><g transform="matrix(1,0,0,1,0,0)"><svg width="168.551872" viewBox="-0.8 -33.7 37.099999999999994 35" height="159.0112" data-palette-color="url(#3f897bfa-6aa0-4060-8417-06bfec66697c)"><g class="wordmark-text-0" data-fill-palette-color="primary" id="SvgjsG2995"><path d="M-0.4 1.3L-0.4 1.3Q-0.8 1.3-0.8 0.85L-0.8 0.85Q-0.8 0.75-0.78 0.63-0.75 0.5-0.7 0.35L-0.7 0.35Q-0.35-1 1.13-3.63 2.6-6.25 4.6-9.35L4.6-9.35Q2.6-9.85 1.3-10.85L1.3-10.85Q-0.2-12.05-0.2-13.55L-0.2-13.55Q-0.2-14.7 0.7-15.5L0.7-15.5Q0.9-15.7 1.05-15.7L1.05-15.7Q1.15-15.7 1.15-15.55L1.15-15.55Q1.15-15.25 0.9-15L0.9-15Q0.55-14.5 0.55-13.8L0.55-13.8Q0.55-13.2 0.83-12.6 1.1-12 1.75-11.5L1.75-11.5Q3.15-10.4 5.1-10.1L5.1-10.1Q7-12.95 9.03-15.78 11.05-18.6 12.88-20.95 14.7-23.3 15.95-24.73 17.2-26.15 17.55-26.15L17.55-26.15Q17.9-26.15 18.1-25.78 18.3-25.4 18.3-25.1L18.3-25.1Q18.3-25.1 17.25-23.78 16.2-22.45 14.5-20.25 12.8-18.05 10.8-15.35 8.8-12.65 6.85-9.85L6.85-9.85Q9.5-9.7 12.55-10.3 15.6-10.9 18.57-11.9 21.55-12.9 24.03-14.05 26.5-15.2 27.95-16.15L27.95-16.15Q31-18.2 32.43-20.38 33.85-22.55 33.85-24.45L33.85-24.45Q33.85-26.9 31.68-28.5 29.5-30.1 25.45-30.1L25.45-30.1Q24.3-30.1 22.95-29.95L22.95-29.95Q20.8-29.7 18.1-29.1 15.4-28.5 12.7-27.63 10-26.75 7.75-25.75 5.5-24.75 4.2-23.65L4.2-23.65Q3.35-23 3.65-22.5L3.65-22.5Q3.75-22.35 3.75-22.2L3.75-22.2Q3.75-22.1 3.6-22.13 3.45-22.15 3.3-22.25L3.3-22.25Q2.5-22.75 2.1-23.55 1.7-24.35 1.7-25L1.7-25Q1.7-25.25 1.78-25.45 1.85-25.65 1.9-25.8L1.9-25.8Q2.9-27.2 5.28-28.48 7.65-29.75 10.83-30.8 14-31.85 17.45-32.58 20.9-33.3 24-33.6L24-33.6Q24.6-33.65 25.18-33.68 25.75-33.7 26.25-33.7L26.25-33.7Q31.45-33.7 33.88-31.53 36.3-29.35 36.3-26.25L36.3-26.25Q36.3-23.4 34.27-20.3 32.25-17.2 28.4-14.95L28.4-14.95Q26.85-14.05 24.5-13.03 22.15-12 19.35-11.08 16.55-10.15 13.65-9.55 10.75-8.95 8.1-8.95L8.1-8.95Q7.6-8.95 7.15-8.97 6.7-9 6.25-9.05L6.25-9.05Q4.35-6.3 2.83-3.78 1.3-1.25 0.6 0.5L0.6 0.5Q0.5 0.85 0.18 1.07-0.15 1.3-0.4 1.3Z" fill="white"></path></g></svg></g></svg></g><g transform="matrix(1,0,0,1,0,196.5499280512)"><svg viewBox="0 0 168.551872 41.62960109383379" height="41.62960109383379" width="168.551872"><g transform="matrix(1,0,0,1,0,0)"><svg width="168.551872" viewBox="0.35 -31.55 149.18 36.85" height="41.62960109383379" data-palette-color="url(#c8ab3f05-8c3b-4570-bd5f-81a71baeb04c)"><path d="M7.45 0.3L7.45 0.3Q5.05 0.3 3.48-0.38 1.9-1.05 1.13-2.93 0.35-4.8 0.35-8.4L0.35-8.4 0.35-19.25Q0.35-21.65 1.23-22.98 2.1-24.3 3.43-24.83 4.75-25.35 6.1-25.35L6.1-25.35Q7.55-25.35 8.45-24.95L8.45-24.95 8.45-31.55 17.65-31.55 17.65 0 11 0 10.75-0.8Q10.2-0.35 9.38-0.03 8.55 0.3 7.45 0.3ZM7.45-0.6L7.45-0.6Q8.9-0.6 9.78-1.23 10.65-1.85 11.1-2.45L11.1-2.45 11.6-0.9 16.8-0.9 16.8-30.6 9.3-30.6 9.3-23.35Q8.8-23.85 8.05-24.15 7.3-24.45 6.1-24.45L6.1-24.45Q4.95-24.45 3.8-24 2.65-23.55 1.93-22.43 1.2-21.3 1.2-19.25L1.2-19.25 1.2-8.4Q1.2-5.15 1.88-3.48 2.55-1.8 3.93-1.2 5.3-0.6 7.45-0.6ZM7.45-1.05L7.45-1.05Q5.5-1.05 4.2-1.6 2.9-2.15 2.27-3.75 1.65-5.35 1.65-8.4L1.65-8.4 1.65-19.25Q1.65-21.1 2.33-22.1 3-23.1 4.03-23.53 5.05-23.95 6.1-23.95L6.1-23.95Q7.8-23.95 8.58-23.38 9.35-22.8 9.75-22.15L9.75-22.15 9.75-30.15 16.35-30.15 16.35-1.35 11.9-1.35 11.2-3.5Q10.9-2.8 9.98-1.93 9.05-1.05 7.45-1.05ZM9-5.05L9-5.05Q9.75-5.05 9.75-6.4L9.75-6.4 9.75-19.9Q9.6-19.95 9.43-19.98 9.25-20 9-20L9-20Q8.3-20 8.3-18.65L8.3-18.65 8.3-6.4Q8.3-5.05 9-5.05ZM9-5.5L9-5.5Q8.7-5.5 8.7-6.4L8.7-6.4 8.7-18.65Q8.7-19.55 9-19.55L9-19.55 9.3-19.55 9.3-6.4Q9.3-5.5 9-5.5ZM27.1 0.55L27.1 0.55Q24.1 0.55 22.2-0.18 20.3-0.9 19.37-2.9 18.45-4.9 18.45-8.8L18.45-8.8 18.45-18.05Q18.45-22.1 20.7-23.65 22.95-25.2 27.1-25.2L27.1-25.2Q31.25-25.2 33.5-23.65 35.75-22.1 35.75-18.05L35.75-18.05 35.75-8.8Q35.75-4.9 34.8-2.9 33.85-0.9 31.95-0.18 30.05 0.55 27.1 0.55ZM27.1-0.35L27.1-0.35Q29.8-0.35 31.52-1 33.25-1.65 34.07-3.48 34.9-5.3 34.9-8.8L34.9-8.8 34.9-10.2 27.4-10.2 27.4-5.75Q27.4-5.2 27.32-5.03 27.25-4.85 27.1-4.85L27.1-4.85Q26.8-4.85 26.8-5.75L26.8-5.75 26.8-11.35 34.9-11.35 34.9-18.05Q34.9-21.65 32.87-22.98 30.85-24.3 27.1-24.3L27.1-24.3Q23.35-24.3 21.32-22.98 19.3-21.65 19.3-18.05L19.3-18.05 19.3-8.8Q19.3-5.3 20.12-3.48 20.95-1.65 22.7-1 24.45-0.35 27.1-0.35ZM27.1-0.8L27.1-0.8Q24.55-0.8 22.9-1.43 21.25-2.05 20.47-3.78 19.7-5.5 19.7-8.8L19.7-8.8 19.7-18.05Q19.7-21.4 21.6-22.63 23.5-23.85 27.1-23.85L27.1-23.85Q30.65-23.85 32.55-22.63 34.45-21.4 34.45-18.05L34.45-18.05 34.45-11.8 26.35-11.8 26.35-5.75Q26.35-4.95 26.55-4.67 26.75-4.4 27.1-4.4L27.1-4.4Q27.8-4.4 27.8-5.75L27.8-5.75 27.8-9.75 34.45-9.75 34.45-8.8Q34.45-5.5 33.67-3.78 32.9-2.05 31.27-1.43 29.65-0.8 27.1-0.8ZM26.35-19.05L26.35-14.8 27.8-14.8 27.8-19.05Q27.8-20.3 27.1-20.3L27.1-20.3Q26.75-20.3 26.55-20.05 26.35-19.8 26.35-19.05L26.35-19.05ZM27.4-15.25L26.8-15.25 26.8-19.1Q26.8-19.85 27.1-19.85L27.1-19.85Q27.4-19.85 27.4-19.1L27.4-19.1 27.4-15.25ZM50.95 0L40.74 0 35.95-24.75 45.59-24.75 46.14-20.85 46.55-24.75 55.7-24.75 50.95 0ZM36.99-23.85L41.45-0.9 50.24-0.9 54.64-23.85 47.34-23.85 46.2-13.8 44.89-23.85 36.99-23.85ZM49.89-1.35L41.8-1.35 37.55-23.4 44.49-23.4 46.2-10.55 46.24-9.55 46.3-10.55 47.74-23.4 54.14-23.4 49.89-1.35ZM64.09 0.55L64.09 0.55Q61.09 0.55 59.19-0.18 57.29-0.9 56.37-2.9 55.44-4.9 55.44-8.8L55.44-8.8 55.44-18.05Q55.44-22.1 57.69-23.65 59.94-25.2 64.09-25.2L64.09-25.2Q68.24-25.2 70.49-23.65 72.74-22.1 72.74-18.05L72.74-18.05 72.74-8.8Q72.74-4.9 71.79-2.9 70.84-0.9 68.94-0.18 67.04 0.55 64.09 0.55ZM64.09-0.35L64.09-0.35Q66.79-0.35 68.52-1 70.24-1.65 71.07-3.48 71.89-5.3 71.89-8.8L71.89-8.8 71.89-10.2 64.39-10.2 64.39-5.75Q64.39-5.2 64.32-5.03 64.24-4.85 64.09-4.85L64.09-4.85Q63.79-4.85 63.79-5.75L63.79-5.75 63.79-11.35 71.89-11.35 71.89-18.05Q71.89-21.65 69.87-22.98 67.84-24.3 64.09-24.3L64.09-24.3Q60.34-24.3 58.32-22.98 56.29-21.65 56.29-18.05L56.29-18.05 56.29-8.8Q56.29-5.3 57.12-3.48 57.94-1.65 59.69-1 61.44-0.35 64.09-0.35ZM64.09-0.8L64.09-0.8Q61.54-0.8 59.89-1.43 58.24-2.05 57.47-3.78 56.69-5.5 56.69-8.8L56.69-8.8 56.69-18.05Q56.69-21.4 58.59-22.63 60.49-23.85 64.09-23.85L64.09-23.85Q67.64-23.85 69.54-22.63 71.44-21.4 71.44-18.05L71.44-18.05 71.44-11.8 63.34-11.8 63.34-5.75Q63.34-4.95 63.54-4.67 63.74-4.4 64.09-4.4L64.09-4.4Q64.79-4.4 64.79-5.75L64.79-5.75 64.79-9.75 71.44-9.75 71.44-8.8Q71.44-5.5 70.67-3.78 69.89-2.05 68.27-1.43 66.64-0.8 64.09-0.8ZM63.34-19.05L63.34-14.8 64.79-14.8 64.79-19.05Q64.79-20.3 64.09-20.3L64.09-20.3Q63.74-20.3 63.54-20.05 63.34-19.8 63.34-19.05L63.34-19.05ZM64.39-15.25L63.79-15.25 63.79-19.1Q63.79-19.85 64.09-19.85L64.09-19.85Q64.39-19.85 64.39-19.1L64.39-19.1 64.39-15.25ZM81.09 0L73.29 0 73.29-31.5 81.09-31.5 81.09 0ZM73.99-30.6L73.99-0.9 80.39-0.9 80.39-30.6 73.99-30.6ZM79.99-1.35L74.39-1.35 74.39-30.15 79.99-30.15 79.99-1.35ZM90.54 0.55L90.54 0.55Q87.54 0.55 85.64-0.18 83.74-0.9 82.81-2.9 81.89-4.9 81.89-8.8L81.89-8.8 81.89-18.05Q81.89-22.1 84.14-23.65 86.39-25.2 90.54-25.2L90.54-25.2Q94.69-25.2 96.94-23.65 99.19-22.1 99.19-18.05L99.19-18.05 99.19-8.8Q99.19-4.9 98.24-2.9 97.29-0.9 95.39-0.18 93.49 0.55 90.54 0.55ZM90.54-0.35L90.54-0.35Q93.24-0.35 94.96-1 96.69-1.65 97.51-3.48 98.34-5.3 98.34-8.8L98.34-8.8 98.34-18.05Q98.34-21.65 96.31-22.98 94.29-24.3 90.54-24.3L90.54-24.3Q86.79-24.3 84.76-22.98 82.74-21.65 82.74-18.05L82.74-18.05 82.74-8.8Q82.74-5.3 83.56-3.48 84.39-1.65 86.14-1 87.89-0.35 90.54-0.35ZM90.54-0.8L90.54-0.8Q87.99-0.8 86.34-1.43 84.69-2.05 83.91-3.78 83.14-5.5 83.14-8.8L83.14-8.8 83.14-18.05Q83.14-21.4 85.04-22.63 86.94-23.85 90.54-23.85L90.54-23.85Q94.09-23.85 95.99-22.63 97.89-21.4 97.89-18.05L97.89-18.05 97.89-8.8Q97.89-5.5 97.11-3.78 96.34-2.05 94.71-1.43 93.09-0.8 90.54-0.8ZM90.54-4.4L90.54-4.4Q91.09-4.4 91.19-4.83 91.29-5.25 91.29-5.6L91.29-5.6 91.29-19.1Q91.29-19.8 91.11-20.05 90.94-20.3 90.54-20.3L90.54-20.3Q90.19-20.3 89.99-20.08 89.79-19.85 89.79-19.1L89.79-19.1 89.79-5.6Q89.79-5.1 89.91-4.75 90.04-4.4 90.54-4.4ZM90.54-4.85L90.54-4.85Q90.24-4.85 90.24-5.6L90.24-5.6 90.24-19.1Q90.24-19.85 90.54-19.85L90.54-19.85Q90.84-19.85 90.84-19.1L90.84-19.1 90.84-5.6Q90.84-4.85 90.54-4.85ZM109.19 5.3L99.99 5.3 99.99-24.95 109.14-24.95 109.14-24.75Q109.74-25.05 110.41-25.15 111.09-25.25 111.74-25.25L111.74-25.25Q113.19-25.25 114.44-24.68 115.69-24.1 116.49-22.73 117.29-21.35 117.29-18.85L117.29-18.85 117.29-8.4Q117.29-3.7 115.74-1.73 114.19 0.25 111.29 0.25L111.29 0.25Q109.94 0.25 109.19-0.1L109.19-0.1 109.19 5.3ZM100.84-24.05L100.84 4.4 108.34 4.4 108.34-1.7Q108.84-1.25 109.56-0.95 110.29-0.65 111.29-0.65L111.29-0.65Q113.79-0.65 115.11-2.4 116.44-4.15 116.44-8.4L116.44-8.4 116.44-18.85Q116.44-22.1 114.99-23.25 113.54-24.4 111.54-24.4L111.54-24.4Q110.39-24.4 109.61-24.08 108.84-23.75 108.34-23.3L108.34-23.3 108.34-24.05 100.84-24.05ZM107.89 3.9L101.24 3.9 101.24-23.6 107.89-23.6 107.89-22Q108.34-22.65 109.09-23.3 109.84-23.95 111.54-23.95L111.54-23.95Q113.39-23.95 114.69-22.88 115.99-21.8 115.99-18.85L115.99-18.85 115.99-8.4Q115.99-4.4 114.81-2.75 113.64-1.1 111.29-1.1L111.29-1.1Q109.84-1.1 109.06-1.68 108.29-2.25 107.89-3L107.89-3 107.89 3.9ZM108.64-5L108.64-5Q109.39-5 109.39-6.4L109.39-6.4 109.39-18.4Q109.39-19.6 108.49-19.6L108.49-19.6Q108.09-19.6 107.89-19.5L107.89-19.5 107.89-6.4Q107.89-5 108.64-5ZM108.64-5.45L108.64-5.45Q108.34-5.45 108.34-6.2L108.34-6.2 108.34-19.15 108.54-19.15Q108.94-19.15 108.94-18.5L108.94-18.5 108.94-6.2Q108.94-5.45 108.64-5.45ZM126.63 0.55L126.63 0.55Q123.63 0.55 121.73-0.18 119.83-0.9 118.91-2.9 117.98-4.9 117.98-8.8L117.98-8.8 117.98-18.05Q117.98-22.1 120.23-23.65 122.48-25.2 126.63-25.2L126.63-25.2Q130.78-25.2 133.03-23.65 135.28-22.1 135.28-18.05L135.28-18.05 135.28-8.8Q135.28-4.9 134.33-2.9 133.38-0.9 131.48-0.18 129.58 0.55 126.63 0.55ZM126.63-0.35L126.63-0.35Q129.33-0.35 131.06-1 132.78-1.65 133.61-3.48 134.43-5.3 134.43-8.8L134.43-8.8 134.43-10.2 126.93-10.2 126.93-5.75Q126.93-5.2 126.86-5.03 126.78-4.85 126.63-4.85L126.63-4.85Q126.33-4.85 126.33-5.75L126.33-5.75 126.33-11.35 134.43-11.35 134.43-18.05Q134.43-21.65 132.41-22.98 130.38-24.3 126.63-24.3L126.63-24.3Q122.88-24.3 120.86-22.98 118.83-21.65 118.83-18.05L118.83-18.05 118.83-8.8Q118.83-5.3 119.66-3.48 120.48-1.65 122.23-1 123.98-0.35 126.63-0.35ZM126.63-0.8L126.63-0.8Q124.08-0.8 122.43-1.43 120.78-2.05 120.01-3.78 119.23-5.5 119.23-8.8L119.23-8.8 119.23-18.05Q119.23-21.4 121.13-22.63 123.03-23.85 126.63-23.85L126.63-23.85Q130.18-23.85 132.08-22.63 133.98-21.4 133.98-18.05L133.98-18.05 133.98-11.8 125.88-11.8 125.88-5.75Q125.88-4.95 126.08-4.67 126.28-4.4 126.63-4.4L126.63-4.4Q127.33-4.4 127.33-5.75L127.33-5.75 127.33-9.75 133.98-9.75 133.98-8.8Q133.98-5.5 133.21-3.78 132.43-2.05 130.81-1.43 129.18-0.8 126.63-0.8ZM125.88-19.05L125.88-14.8 127.33-14.8 127.33-19.05Q127.33-20.3 126.63-20.3L126.63-20.3Q126.28-20.3 126.08-20.05 125.88-19.8 125.88-19.05L125.88-19.05ZM126.93-15.25L126.33-15.25 126.33-19.1Q126.33-19.85 126.63-19.85L126.63-19.85Q126.93-19.85 126.93-19.1L126.93-19.1 126.93-15.25ZM144.68 0L135.83 0 135.83-24.75 143.73-24.75 143.73-23.55Q144.88-24.4 146.41-24.68 147.93-24.95 149.53-24.55L149.53-24.55 149.53-16.55Q148.83-16.7 148.26-16.82 147.68-16.95 146.88-16.95L146.88-16.95Q145.48-16.95 145.08-16.28 144.68-15.6 144.68-13.8L144.68-13.8 144.68 0ZM136.63-23.9L136.63-0.9 143.88-0.9 143.88-13.8Q143.88-16.2 144.53-17.03 145.18-17.85 146.88-17.85L146.88-17.85Q147.28-17.85 147.81-17.8 148.33-17.75 148.73-17.65L148.73-17.65 148.73-23.85Q147.08-24.25 145.58-23.7 144.08-23.15 143.23-21.85L143.23-21.85 142.88-23.9 136.63-23.9ZM143.48-1.35L137.08-1.35 137.08-23.45 142.53-23.45 143.03-20.6Q143.63-22.35 145.13-23.1 146.63-23.85 148.28-23.5L148.28-23.5 148.28-18.15Q147.93-18.2 147.58-18.23 147.23-18.25 146.88-18.25L146.88-18.25Q144.98-18.25 144.23-17.32 143.48-16.4 143.48-13.8L143.48-13.8 143.48-1.35Z" opacity="1" transform="matrix(1,0,0,1,0,0)" fill="black" class="slogan-text-1" id="SvgjsPath2994"></path></svg></g></svg></g></svg></g></svg></g></svg></g></svg></g></svg></g></svg></g><defs><mask></mask></defs></svg><rect width="512" height="320" fill="black" stroke="none" visibility="hidden"></rect></g></mask><linearGradient x1="0.054" x2="0.941" y1="0.5" y2="0.5" id="3f897bfa-6aa0-4060-8417-06bfec66697c"><stop stop-color="#0f3054" offset="0"></stop><stop stop-color="#3b8dcb" offset="0.498"></stop><stop stop-color="#0f3054" offset="1"></stop></linearGradient><rect width="512" height="320" fill="url(#3f897bfa-6aa0-4060-8417-06bfec66697c)" mask="url(#08220adc-165a-43b0-a224-a5e05f087178)" data-fill-palette-color="primary"></rect><mask id="942aa58d-6044-4826-94bc-4aba7ab9694d"><g id="SvgjsG3008"><svg viewBox="0 0 512 320" height="320" width="512"><g><svg></svg></g><g><svg viewBox="0 0 512 320" height="320" width="512"><g><path d="M96 160c0-88.366 71.634-160 160-160 88.366 0 160 71.634 160 160 0 88.366-71.634 160-160 160-88.366 0-160-71.634-160-160zM256 300.734c77.725 0 140.734-63.009 140.734-140.734 0-77.725-63.009-140.734-140.734-140.734-77.725 0-140.734 63.009-140.734 140.734 0 77.725 63.009 140.734 140.734 140.734z" fill="black" fill-rule="nonzero" stroke="none" stroke-width="1" stroke-linecap="butt" stroke-linejoin="miter" stroke-miterlimit="10" stroke-dasharray="" stroke-dashoffset="0" font-family="none" font-weight="none" font-size="none" text-anchor="none" style="mix-blend-mode: normal"></path></g><g transform="matrix(1,0,0,1,199.38661341550832,80)"><svg viewBox="0 0 113.22677316898336 160" height="160" width="113.22677316898336"><g><svg viewBox="0 0 113.22677316898336 160" height="160" width="113.22677316898336"><g><svg viewBox="0 0 168.551872 238.1795291450338" height="160" width="113.22677316898336"><g><svg viewBox="0 0 168.551872 238.1795291450338" height="238.1795291450338" width="168.551872"><g id="SvgjsG3007"><svg viewBox="0 0 168.551872 238.1795291450338" height="238.1795291450338" width="168.551872" id="SvgjsSvg3006"><g><svg viewBox="0 0 168.551872 159.0112" height="159.0112" width="168.551872"><g transform="matrix(1,0,0,1,0,0)"><svg width="168.551872" viewBox="-0.8 -33.7 37.099999999999994 35" height="159.0112" data-palette-color="url(#3f897bfa-6aa0-4060-8417-06bfec66697c)"><g class="wordmark-text-0" data-fill-palette-color="primary" id="SvgjsG3005"></g></svg></g></svg></g><g transform="matrix(1,0,0,1,0,196.5499280512)"><svg viewBox="0 0 168.551872 41.62960109383379" height="41.62960109383379" width="168.551872"><g transform="matrix(1,0,0,1,0,0)"><svg width="168.551872" viewBox="0.35 -31.55 149.18 36.85" height="41.62960109383379" data-palette-color="url(#c8ab3f05-8c3b-4570-bd5f-81a71baeb04c)"><path d="M7.45 0.3L7.45 0.3Q5.05 0.3 3.48-0.38 1.9-1.05 1.13-2.93 0.35-4.8 0.35-8.4L0.35-8.4 0.35-19.25Q0.35-21.65 1.23-22.98 2.1-24.3 3.43-24.83 4.75-25.35 6.1-25.35L6.1-25.35Q7.55-25.35 8.45-24.95L8.45-24.95 8.45-31.55 17.65-31.55 17.65 0 11 0 10.75-0.8Q10.2-0.35 9.38-0.03 8.55 0.3 7.45 0.3ZM7.45-0.6L7.45-0.6Q8.9-0.6 9.78-1.23 10.65-1.85 11.1-2.45L11.1-2.45 11.6-0.9 16.8-0.9 16.8-30.6 9.3-30.6 9.3-23.35Q8.8-23.85 8.05-24.15 7.3-24.45 6.1-24.45L6.1-24.45Q4.95-24.45 3.8-24 2.65-23.55 1.93-22.43 1.2-21.3 1.2-19.25L1.2-19.25 1.2-8.4Q1.2-5.15 1.88-3.48 2.55-1.8 3.93-1.2 5.3-0.6 7.45-0.6ZM7.45-1.05L7.45-1.05Q5.5-1.05 4.2-1.6 2.9-2.15 2.27-3.75 1.65-5.35 1.65-8.4L1.65-8.4 1.65-19.25Q1.65-21.1 2.33-22.1 3-23.1 4.03-23.53 5.05-23.95 6.1-23.95L6.1-23.95Q7.8-23.95 8.58-23.38 9.35-22.8 9.75-22.15L9.75-22.15 9.75-30.15 16.35-30.15 16.35-1.35 11.9-1.35 11.2-3.5Q10.9-2.8 9.98-1.93 9.05-1.05 7.45-1.05ZM9-5.05L9-5.05Q9.75-5.05 9.75-6.4L9.75-6.4 9.75-19.9Q9.6-19.95 9.43-19.98 9.25-20 9-20L9-20Q8.3-20 8.3-18.65L8.3-18.65 8.3-6.4Q8.3-5.05 9-5.05ZM9-5.5L9-5.5Q8.7-5.5 8.7-6.4L8.7-6.4 8.7-18.65Q8.7-19.55 9-19.55L9-19.55 9.3-19.55 9.3-6.4Q9.3-5.5 9-5.5ZM27.1 0.55L27.1 0.55Q24.1 0.55 22.2-0.18 20.3-0.9 19.37-2.9 18.45-4.9 18.45-8.8L18.45-8.8 18.45-18.05Q18.45-22.1 20.7-23.65 22.95-25.2 27.1-25.2L27.1-25.2Q31.25-25.2 33.5-23.65 35.75-22.1 35.75-18.05L35.75-18.05 35.75-8.8Q35.75-4.9 34.8-2.9 33.85-0.9 31.95-0.18 30.05 0.55 27.1 0.55ZM27.1-0.35L27.1-0.35Q29.8-0.35 31.52-1 33.25-1.65 34.07-3.48 34.9-5.3 34.9-8.8L34.9-8.8 34.9-10.2 27.4-10.2 27.4-5.75Q27.4-5.2 27.32-5.03 27.25-4.85 27.1-4.85L27.1-4.85Q26.8-4.85 26.8-5.75L26.8-5.75 26.8-11.35 34.9-11.35 34.9-18.05Q34.9-21.65 32.87-22.98 30.85-24.3 27.1-24.3L27.1-24.3Q23.35-24.3 21.32-22.98 19.3-21.65 19.3-18.05L19.3-18.05 19.3-8.8Q19.3-5.3 20.12-3.48 20.95-1.65 22.7-1 24.45-0.35 27.1-0.35ZM27.1-0.8L27.1-0.8Q24.55-0.8 22.9-1.43 21.25-2.05 20.47-3.78 19.7-5.5 19.7-8.8L19.7-8.8 19.7-18.05Q19.7-21.4 21.6-22.63 23.5-23.85 27.1-23.85L27.1-23.85Q30.65-23.85 32.55-22.63 34.45-21.4 34.45-18.05L34.45-18.05 34.45-11.8 26.35-11.8 26.35-5.75Q26.35-4.95 26.55-4.67 26.75-4.4 27.1-4.4L27.1-4.4Q27.8-4.4 27.8-5.75L27.8-5.75 27.8-9.75 34.45-9.75 34.45-8.8Q34.45-5.5 33.67-3.78 32.9-2.05 31.27-1.43 29.65-0.8 27.1-0.8ZM26.35-19.05L26.35-14.8 27.8-14.8 27.8-19.05Q27.8-20.3 27.1-20.3L27.1-20.3Q26.75-20.3 26.55-20.05 26.35-19.8 26.35-19.05L26.35-19.05ZM27.4-15.25L26.8-15.25 26.8-19.1Q26.8-19.85 27.1-19.85L27.1-19.85Q27.4-19.85 27.4-19.1L27.4-19.1 27.4-15.25ZM50.95 0L40.74 0 35.95-24.75 45.59-24.75 46.14-20.85 46.55-24.75 55.7-24.75 50.95 0ZM36.99-23.85L41.45-0.9 50.24-0.9 54.64-23.85 47.34-23.85 46.2-13.8 44.89-23.85 36.99-23.85ZM49.89-1.35L41.8-1.35 37.55-23.4 44.49-23.4 46.2-10.55 46.24-9.55 46.3-10.55 47.74-23.4 54.14-23.4 49.89-1.35ZM64.09 0.55L64.09 0.55Q61.09 0.55 59.19-0.18 57.29-0.9 56.37-2.9 55.44-4.9 55.44-8.8L55.44-8.8 55.44-18.05Q55.44-22.1 57.69-23.65 59.94-25.2 64.09-25.2L64.09-25.2Q68.24-25.2 70.49-23.65 72.74-22.1 72.74-18.05L72.74-18.05 72.74-8.8Q72.74-4.9 71.79-2.9 70.84-0.9 68.94-0.18 67.04 0.55 64.09 0.55ZM64.09-0.35L64.09-0.35Q66.79-0.35 68.52-1 70.24-1.65 71.07-3.48 71.89-5.3 71.89-8.8L71.89-8.8 71.89-10.2 64.39-10.2 64.39-5.75Q64.39-5.2 64.32-5.03 64.24-4.85 64.09-4.85L64.09-4.85Q63.79-4.85 63.79-5.75L63.79-5.75 63.79-11.35 71.89-11.35 71.89-18.05Q71.89-21.65 69.87-22.98 67.84-24.3 64.09-24.3L64.09-24.3Q60.34-24.3 58.32-22.98 56.29-21.65 56.29-18.05L56.29-18.05 56.29-8.8Q56.29-5.3 57.12-3.48 57.94-1.65 59.69-1 61.44-0.35 64.09-0.35ZM64.09-0.8L64.09-0.8Q61.54-0.8 59.89-1.43 58.24-2.05 57.47-3.78 56.69-5.5 56.69-8.8L56.69-8.8 56.69-18.05Q56.69-21.4 58.59-22.63 60.49-23.85 64.09-23.85L64.09-23.85Q67.64-23.85 69.54-22.63 71.44-21.4 71.44-18.05L71.44-18.05 71.44-11.8 63.34-11.8 63.34-5.75Q63.34-4.95 63.54-4.67 63.74-4.4 64.09-4.4L64.09-4.4Q64.79-4.4 64.79-5.75L64.79-5.75 64.79-9.75 71.44-9.75 71.44-8.8Q71.44-5.5 70.67-3.78 69.89-2.05 68.27-1.43 66.64-0.8 64.09-0.8ZM63.34-19.05L63.34-14.8 64.79-14.8 64.79-19.05Q64.79-20.3 64.09-20.3L64.09-20.3Q63.74-20.3 63.54-20.05 63.34-19.8 63.34-19.05L63.34-19.05ZM64.39-15.25L63.79-15.25 63.79-19.1Q63.79-19.85 64.09-19.85L64.09-19.85Q64.39-19.85 64.39-19.1L64.39-19.1 64.39-15.25ZM81.09 0L73.29 0 73.29-31.5 81.09-31.5 81.09 0ZM73.99-30.6L73.99-0.9 80.39-0.9 80.39-30.6 73.99-30.6ZM79.99-1.35L74.39-1.35 74.39-30.15 79.99-30.15 79.99-1.35ZM90.54 0.55L90.54 0.55Q87.54 0.55 85.64-0.18 83.74-0.9 82.81-2.9 81.89-4.9 81.89-8.8L81.89-8.8 81.89-18.05Q81.89-22.1 84.14-23.65 86.39-25.2 90.54-25.2L90.54-25.2Q94.69-25.2 96.94-23.65 99.19-22.1 99.19-18.05L99.19-18.05 99.19-8.8Q99.19-4.9 98.24-2.9 97.29-0.9 95.39-0.18 93.49 0.55 90.54 0.55ZM90.54-0.35L90.54-0.35Q93.24-0.35 94.96-1 96.69-1.65 97.51-3.48 98.34-5.3 98.34-8.8L98.34-8.8 98.34-18.05Q98.34-21.65 96.31-22.98 94.29-24.3 90.54-24.3L90.54-24.3Q86.79-24.3 84.76-22.98 82.74-21.65 82.74-18.05L82.74-18.05 82.74-8.8Q82.74-5.3 83.56-3.48 84.39-1.65 86.14-1 87.89-0.35 90.54-0.35ZM90.54-0.8L90.54-0.8Q87.99-0.8 86.34-1.43 84.69-2.05 83.91-3.78 83.14-5.5 83.14-8.8L83.14-8.8 83.14-18.05Q83.14-21.4 85.04-22.63 86.94-23.85 90.54-23.85L90.54-23.85Q94.09-23.85 95.99-22.63 97.89-21.4 97.89-18.05L97.89-18.05 97.89-8.8Q97.89-5.5 97.11-3.78 96.34-2.05 94.71-1.43 93.09-0.8 90.54-0.8ZM90.54-4.4L90.54-4.4Q91.09-4.4 91.19-4.83 91.29-5.25 91.29-5.6L91.29-5.6 91.29-19.1Q91.29-19.8 91.11-20.05 90.94-20.3 90.54-20.3L90.54-20.3Q90.19-20.3 89.99-20.08 89.79-19.85 89.79-19.1L89.79-19.1 89.79-5.6Q89.79-5.1 89.91-4.75 90.04-4.4 90.54-4.4ZM90.54-4.85L90.54-4.85Q90.24-4.85 90.24-5.6L90.24-5.6 90.24-19.1Q90.24-19.85 90.54-19.85L90.54-19.85Q90.84-19.85 90.84-19.1L90.84-19.1 90.84-5.6Q90.84-4.85 90.54-4.85ZM109.19 5.3L99.99 5.3 99.99-24.95 109.14-24.95 109.14-24.75Q109.74-25.05 110.41-25.15 111.09-25.25 111.74-25.25L111.74-25.25Q113.19-25.25 114.44-24.68 115.69-24.1 116.49-22.73 117.29-21.35 117.29-18.85L117.29-18.85 117.29-8.4Q117.29-3.7 115.74-1.73 114.19 0.25 111.29 0.25L111.29 0.25Q109.94 0.25 109.19-0.1L109.19-0.1 109.19 5.3ZM100.84-24.05L100.84 4.4 108.34 4.4 108.34-1.7Q108.84-1.25 109.56-0.95 110.29-0.65 111.29-0.65L111.29-0.65Q113.79-0.65 115.11-2.4 116.44-4.15 116.44-8.4L116.44-8.4 116.44-18.85Q116.44-22.1 114.99-23.25 113.54-24.4 111.54-24.4L111.54-24.4Q110.39-24.4 109.61-24.08 108.84-23.75 108.34-23.3L108.34-23.3 108.34-24.05 100.84-24.05ZM107.89 3.9L101.24 3.9 101.24-23.6 107.89-23.6 107.89-22Q108.34-22.65 109.09-23.3 109.84-23.95 111.54-23.95L111.54-23.95Q113.39-23.95 114.69-22.88 115.99-21.8 115.99-18.85L115.99-18.85 115.99-8.4Q115.99-4.4 114.81-2.75 113.64-1.1 111.29-1.1L111.29-1.1Q109.84-1.1 109.06-1.68 108.29-2.25 107.89-3L107.89-3 107.89 3.9ZM108.64-5L108.64-5Q109.39-5 109.39-6.4L109.39-6.4 109.39-18.4Q109.39-19.6 108.49-19.6L108.49-19.6Q108.09-19.6 107.89-19.5L107.89-19.5 107.89-6.4Q107.89-5 108.64-5ZM108.64-5.45L108.64-5.45Q108.34-5.45 108.34-6.2L108.34-6.2 108.34-19.15 108.54-19.15Q108.94-19.15 108.94-18.5L108.94-18.5 108.94-6.2Q108.94-5.45 108.64-5.45ZM126.63 0.55L126.63 0.55Q123.63 0.55 121.73-0.18 119.83-0.9 118.91-2.9 117.98-4.9 117.98-8.8L117.98-8.8 117.98-18.05Q117.98-22.1 120.23-23.65 122.48-25.2 126.63-25.2L126.63-25.2Q130.78-25.2 133.03-23.65 135.28-22.1 135.28-18.05L135.28-18.05 135.28-8.8Q135.28-4.9 134.33-2.9 133.38-0.9 131.48-0.18 129.58 0.55 126.63 0.55ZM126.63-0.35L126.63-0.35Q129.33-0.35 131.06-1 132.78-1.65 133.61-3.48 134.43-5.3 134.43-8.8L134.43-8.8 134.43-10.2 126.93-10.2 126.93-5.75Q126.93-5.2 126.86-5.03 126.78-4.85 126.63-4.85L126.63-4.85Q126.33-4.85 126.33-5.75L126.33-5.75 126.33-11.35 134.43-11.35 134.43-18.05Q134.43-21.65 132.41-22.98 130.38-24.3 126.63-24.3L126.63-24.3Q122.88-24.3 120.86-22.98 118.83-21.65 118.83-18.05L118.83-18.05 118.83-8.8Q118.83-5.3 119.66-3.48 120.48-1.65 122.23-1 123.98-0.35 126.63-0.35ZM126.63-0.8L126.63-0.8Q124.08-0.8 122.43-1.43 120.78-2.05 120.01-3.78 119.23-5.5 119.23-8.8L119.23-8.8 119.23-18.05Q119.23-21.4 121.13-22.63 123.03-23.85 126.63-23.85L126.63-23.85Q130.18-23.85 132.08-22.63 133.98-21.4 133.98-18.05L133.98-18.05 133.98-11.8 125.88-11.8 125.88-5.75Q125.88-4.95 126.08-4.67 126.28-4.4 126.63-4.4L126.63-4.4Q127.33-4.4 127.33-5.75L127.33-5.75 127.33-9.75 133.98-9.75 133.98-8.8Q133.98-5.5 133.21-3.78 132.43-2.05 130.81-1.43 129.18-0.8 126.63-0.8ZM125.88-19.05L125.88-14.8 127.33-14.8 127.33-19.05Q127.33-20.3 126.63-20.3L126.63-20.3Q126.28-20.3 126.08-20.05 125.88-19.8 125.88-19.05L125.88-19.05ZM126.93-15.25L126.33-15.25 126.33-19.1Q126.33-19.85 126.63-19.85L126.63-19.85Q126.93-19.85 126.93-19.1L126.93-19.1 126.93-15.25ZM144.68 0L135.83 0 135.83-24.75 143.73-24.75 143.73-23.55Q144.88-24.4 146.41-24.68 147.93-24.95 149.53-24.55L149.53-24.55 149.53-16.55Q148.83-16.7 148.26-16.82 147.68-16.95 146.88-16.95L146.88-16.95Q145.48-16.95 145.08-16.28 144.68-15.6 144.68-13.8L144.68-13.8 144.68 0ZM136.63-23.9L136.63-0.9 143.88-0.9 143.88-13.8Q143.88-16.2 144.53-17.03 145.18-17.85 146.88-17.85L146.88-17.85Q147.28-17.85 147.81-17.8 148.33-17.75 148.73-17.65L148.73-17.65 148.73-23.85Q147.08-24.25 145.58-23.7 144.08-23.15 143.23-21.85L143.23-21.85 142.88-23.9 136.63-23.9ZM143.48-1.35L137.08-1.35 137.08-23.45 142.53-23.45 143.03-20.6Q143.63-22.35 145.13-23.1 146.63-23.85 148.28-23.5L148.28-23.5 148.28-18.15Q147.93-18.2 147.58-18.23 147.23-18.25 146.88-18.25L146.88-18.25Q144.98-18.25 144.23-17.32 143.48-16.4 143.48-13.8L143.48-13.8 143.48-1.35Z" opacity="1" transform="matrix(1,0,0,1,0,0)" fill="white" class="slogan-text-1" id="SvgjsPath3004"></path></svg></g></svg></g></svg></g></svg></g></svg></g></svg></g></svg></g></svg></g><defs><mask></mask></defs><mask><g id="SvgjsG3003"><svg viewBox="0 0 512 320" height="320" width="512"><g><svg></svg></g><g><svg viewBox="0 0 512 320" height="320" width="512"><g><path d="M96 160c0-88.366 71.634-160 160-160 88.366 0 160 71.634 160 160 0 88.366-71.634 160-160 160-88.366 0-160-71.634-160-160zM256 300.734c77.725 0 140.734-63.009 140.734-140.734 0-77.725-63.009-140.734-140.734-140.734-77.725 0-140.734 63.009-140.734 140.734 0 77.725 63.009 140.734 140.734 140.734z" fill="black" fill-rule="nonzero" stroke="none" stroke-width="1" stroke-linecap="butt" stroke-linejoin="miter" stroke-miterlimit="10" stroke-dasharray="" stroke-dashoffset="0" font-family="none" font-weight="none" font-size="none" text-anchor="none" style="mix-blend-mode: normal"></path></g><g transform="matrix(1,0,0,1,199.38661341550832,80)"><svg viewBox="0 0 113.22677316898336 160" height="160" width="113.22677316898336"><g><svg viewBox="0 0 113.22677316898336 160" height="160" width="113.22677316898336"><g><svg viewBox="0 0 168.551872 238.1795291450338" height="160" width="113.22677316898336"><g><svg viewBox="0 0 168.551872 238.1795291450338" height="238.1795291450338" width="168.551872"><g id="SvgjsG3002"><svg viewBox="0 0 168.551872 238.1795291450338" height="238.1795291450338" width="168.551872" id="SvgjsSvg3001"><g><svg viewBox="0 0 168.551872 159.0112" height="159.0112" width="168.551872"><g transform="matrix(1,0,0,1,0,0)"><svg width="168.551872" viewBox="-0.8 -33.7 37.099999999999994 35" height="159.0112" data-palette-color="url(#3f897bfa-6aa0-4060-8417-06bfec66697c)"><g class="wordmark-text-0" data-fill-palette-color="primary" id="SvgjsG3000"><path d="M-0.4 1.3L-0.4 1.3Q-0.8 1.3-0.8 0.85L-0.8 0.85Q-0.8 0.75-0.78 0.63-0.75 0.5-0.7 0.35L-0.7 0.35Q-0.35-1 1.13-3.63 2.6-6.25 4.6-9.35L4.6-9.35Q2.6-9.85 1.3-10.85L1.3-10.85Q-0.2-12.05-0.2-13.55L-0.2-13.55Q-0.2-14.7 0.7-15.5L0.7-15.5Q0.9-15.7 1.05-15.7L1.05-15.7Q1.15-15.7 1.15-15.55L1.15-15.55Q1.15-15.25 0.9-15L0.9-15Q0.55-14.5 0.55-13.8L0.55-13.8Q0.55-13.2 0.83-12.6 1.1-12 1.75-11.5L1.75-11.5Q3.15-10.4 5.1-10.1L5.1-10.1Q7-12.95 9.03-15.78 11.05-18.6 12.88-20.95 14.7-23.3 15.95-24.73 17.2-26.15 17.55-26.15L17.55-26.15Q17.9-26.15 18.1-25.78 18.3-25.4 18.3-25.1L18.3-25.1Q18.3-25.1 17.25-23.78 16.2-22.45 14.5-20.25 12.8-18.05 10.8-15.35 8.8-12.65 6.85-9.85L6.85-9.85Q9.5-9.7 12.55-10.3 15.6-10.9 18.57-11.9 21.55-12.9 24.03-14.05 26.5-15.2 27.95-16.15L27.95-16.15Q31-18.2 32.43-20.38 33.85-22.55 33.85-24.45L33.85-24.45Q33.85-26.9 31.68-28.5 29.5-30.1 25.45-30.1L25.45-30.1Q24.3-30.1 22.95-29.95L22.95-29.95Q20.8-29.7 18.1-29.1 15.4-28.5 12.7-27.63 10-26.75 7.75-25.75 5.5-24.75 4.2-23.65L4.2-23.65Q3.35-23 3.65-22.5L3.65-22.5Q3.75-22.35 3.75-22.2L3.75-22.2Q3.75-22.1 3.6-22.13 3.45-22.15 3.3-22.25L3.3-22.25Q2.5-22.75 2.1-23.55 1.7-24.35 1.7-25L1.7-25Q1.7-25.25 1.78-25.45 1.85-25.65 1.9-25.8L1.9-25.8Q2.9-27.2 5.28-28.48 7.65-29.75 10.83-30.8 14-31.85 17.45-32.58 20.9-33.3 24-33.6L24-33.6Q24.6-33.65 25.18-33.68 25.75-33.7 26.25-33.7L26.25-33.7Q31.45-33.7 33.88-31.53 36.3-29.35 36.3-26.25L36.3-26.25Q36.3-23.4 34.27-20.3 32.25-17.2 28.4-14.95L28.4-14.95Q26.85-14.05 24.5-13.03 22.15-12 19.35-11.08 16.55-10.15 13.65-9.55 10.75-8.95 8.1-8.95L8.1-8.95Q7.6-8.95 7.15-8.97 6.7-9 6.25-9.05L6.25-9.05Q4.35-6.3 2.83-3.78 1.3-1.25 0.6 0.5L0.6 0.5Q0.5 0.85 0.18 1.07-0.15 1.3-0.4 1.3Z" fill="black"></path></g></svg></g></svg></g><g transform="matrix(1,0,0,1,0,196.5499280512)"><svg viewBox="0 0 168.551872 41.62960109383379" height="41.62960109383379" width="168.551872"><g transform="matrix(1,0,0,1,0,0)"><svg width="168.551872" viewBox="0.35 -31.55 149.18 36.85" height="41.62960109383379" data-palette-color="url(#c8ab3f05-8c3b-4570-bd5f-81a71baeb04c)"><path d="M7.45 0.3L7.45 0.3Q5.05 0.3 3.48-0.38 1.9-1.05 1.13-2.93 0.35-4.8 0.35-8.4L0.35-8.4 0.35-19.25Q0.35-21.65 1.23-22.98 2.1-24.3 3.43-24.83 4.75-25.35 6.1-25.35L6.1-25.35Q7.55-25.35 8.45-24.95L8.45-24.95 8.45-31.55 17.65-31.55 17.65 0 11 0 10.75-0.8Q10.2-0.35 9.38-0.03 8.55 0.3 7.45 0.3ZM7.45-0.6L7.45-0.6Q8.9-0.6 9.78-1.23 10.65-1.85 11.1-2.45L11.1-2.45 11.6-0.9 16.8-0.9 16.8-30.6 9.3-30.6 9.3-23.35Q8.8-23.85 8.05-24.15 7.3-24.45 6.1-24.45L6.1-24.45Q4.95-24.45 3.8-24 2.65-23.55 1.93-22.43 1.2-21.3 1.2-19.25L1.2-19.25 1.2-8.4Q1.2-5.15 1.88-3.48 2.55-1.8 3.93-1.2 5.3-0.6 7.45-0.6ZM7.45-1.05L7.45-1.05Q5.5-1.05 4.2-1.6 2.9-2.15 2.27-3.75 1.65-5.35 1.65-8.4L1.65-8.4 1.65-19.25Q1.65-21.1 2.33-22.1 3-23.1 4.03-23.53 5.05-23.95 6.1-23.95L6.1-23.95Q7.8-23.95 8.58-23.38 9.35-22.8 9.75-22.15L9.75-22.15 9.75-30.15 16.35-30.15 16.35-1.35 11.9-1.35 11.2-3.5Q10.9-2.8 9.98-1.93 9.05-1.05 7.45-1.05ZM9-5.05L9-5.05Q9.75-5.05 9.75-6.4L9.75-6.4 9.75-19.9Q9.6-19.95 9.43-19.98 9.25-20 9-20L9-20Q8.3-20 8.3-18.65L8.3-18.65 8.3-6.4Q8.3-5.05 9-5.05ZM9-5.5L9-5.5Q8.7-5.5 8.7-6.4L8.7-6.4 8.7-18.65Q8.7-19.55 9-19.55L9-19.55 9.3-19.55 9.3-6.4Q9.3-5.5 9-5.5ZM27.1 0.55L27.1 0.55Q24.1 0.55 22.2-0.18 20.3-0.9 19.37-2.9 18.45-4.9 18.45-8.8L18.45-8.8 18.45-18.05Q18.45-22.1 20.7-23.65 22.95-25.2 27.1-25.2L27.1-25.2Q31.25-25.2 33.5-23.65 35.75-22.1 35.75-18.05L35.75-18.05 35.75-8.8Q35.75-4.9 34.8-2.9 33.85-0.9 31.95-0.18 30.05 0.55 27.1 0.55ZM27.1-0.35L27.1-0.35Q29.8-0.35 31.52-1 33.25-1.65 34.07-3.48 34.9-5.3 34.9-8.8L34.9-8.8 34.9-10.2 27.4-10.2 27.4-5.75Q27.4-5.2 27.32-5.03 27.25-4.85 27.1-4.85L27.1-4.85Q26.8-4.85 26.8-5.75L26.8-5.75 26.8-11.35 34.9-11.35 34.9-18.05Q34.9-21.65 32.87-22.98 30.85-24.3 27.1-24.3L27.1-24.3Q23.35-24.3 21.32-22.98 19.3-21.65 19.3-18.05L19.3-18.05 19.3-8.8Q19.3-5.3 20.12-3.48 20.95-1.65 22.7-1 24.45-0.35 27.1-0.35ZM27.1-0.8L27.1-0.8Q24.55-0.8 22.9-1.43 21.25-2.05 20.47-3.78 19.7-5.5 19.7-8.8L19.7-8.8 19.7-18.05Q19.7-21.4 21.6-22.63 23.5-23.85 27.1-23.85L27.1-23.85Q30.65-23.85 32.55-22.63 34.45-21.4 34.45-18.05L34.45-18.05 34.45-11.8 26.35-11.8 26.35-5.75Q26.35-4.95 26.55-4.67 26.75-4.4 27.1-4.4L27.1-4.4Q27.8-4.4 27.8-5.75L27.8-5.75 27.8-9.75 34.45-9.75 34.45-8.8Q34.45-5.5 33.67-3.78 32.9-2.05 31.27-1.43 29.65-0.8 27.1-0.8ZM26.35-19.05L26.35-14.8 27.8-14.8 27.8-19.05Q27.8-20.3 27.1-20.3L27.1-20.3Q26.75-20.3 26.55-20.05 26.35-19.8 26.35-19.05L26.35-19.05ZM27.4-15.25L26.8-15.25 26.8-19.1Q26.8-19.85 27.1-19.85L27.1-19.85Q27.4-19.85 27.4-19.1L27.4-19.1 27.4-15.25ZM50.95 0L40.74 0 35.95-24.75 45.59-24.75 46.14-20.85 46.55-24.75 55.7-24.75 50.95 0ZM36.99-23.85L41.45-0.9 50.24-0.9 54.64-23.85 47.34-23.85 46.2-13.8 44.89-23.85 36.99-23.85ZM49.89-1.35L41.8-1.35 37.55-23.4 44.49-23.4 46.2-10.55 46.24-9.55 46.3-10.55 47.74-23.4 54.14-23.4 49.89-1.35ZM64.09 0.55L64.09 0.55Q61.09 0.55 59.19-0.18 57.29-0.9 56.37-2.9 55.44-4.9 55.44-8.8L55.44-8.8 55.44-18.05Q55.44-22.1 57.69-23.65 59.94-25.2 64.09-25.2L64.09-25.2Q68.24-25.2 70.49-23.65 72.74-22.1 72.74-18.05L72.74-18.05 72.74-8.8Q72.74-4.9 71.79-2.9 70.84-0.9 68.94-0.18 67.04 0.55 64.09 0.55ZM64.09-0.35L64.09-0.35Q66.79-0.35 68.52-1 70.24-1.65 71.07-3.48 71.89-5.3 71.89-8.8L71.89-8.8 71.89-10.2 64.39-10.2 64.39-5.75Q64.39-5.2 64.32-5.03 64.24-4.85 64.09-4.85L64.09-4.85Q63.79-4.85 63.79-5.75L63.79-5.75 63.79-11.35 71.89-11.35 71.89-18.05Q71.89-21.65 69.87-22.98 67.84-24.3 64.09-24.3L64.09-24.3Q60.34-24.3 58.32-22.98 56.29-21.65 56.29-18.05L56.29-18.05 56.29-8.8Q56.29-5.3 57.12-3.48 57.94-1.65 59.69-1 61.44-0.35 64.09-0.35ZM64.09-0.8L64.09-0.8Q61.54-0.8 59.89-1.43 58.24-2.05 57.47-3.78 56.69-5.5 56.69-8.8L56.69-8.8 56.69-18.05Q56.69-21.4 58.59-22.63 60.49-23.85 64.09-23.85L64.09-23.85Q67.64-23.85 69.54-22.63 71.44-21.4 71.44-18.05L71.44-18.05 71.44-11.8 63.34-11.8 63.34-5.75Q63.34-4.95 63.54-4.67 63.74-4.4 64.09-4.4L64.09-4.4Q64.79-4.4 64.79-5.75L64.79-5.75 64.79-9.75 71.44-9.75 71.44-8.8Q71.44-5.5 70.67-3.78 69.89-2.05 68.27-1.43 66.64-0.8 64.09-0.8ZM63.34-19.05L63.34-14.8 64.79-14.8 64.79-19.05Q64.79-20.3 64.09-20.3L64.09-20.3Q63.74-20.3 63.54-20.05 63.34-19.8 63.34-19.05L63.34-19.05ZM64.39-15.25L63.79-15.25 63.79-19.1Q63.79-19.85 64.09-19.85L64.09-19.85Q64.39-19.85 64.39-19.1L64.39-19.1 64.39-15.25ZM81.09 0L73.29 0 73.29-31.5 81.09-31.5 81.09 0ZM73.99-30.6L73.99-0.9 80.39-0.9 80.39-30.6 73.99-30.6ZM79.99-1.35L74.39-1.35 74.39-30.15 79.99-30.15 79.99-1.35ZM90.54 0.55L90.54 0.55Q87.54 0.55 85.64-0.18 83.74-0.9 82.81-2.9 81.89-4.9 81.89-8.8L81.89-8.8 81.89-18.05Q81.89-22.1 84.14-23.65 86.39-25.2 90.54-25.2L90.54-25.2Q94.69-25.2 96.94-23.65 99.19-22.1 99.19-18.05L99.19-18.05 99.19-8.8Q99.19-4.9 98.24-2.9 97.29-0.9 95.39-0.18 93.49 0.55 90.54 0.55ZM90.54-0.35L90.54-0.35Q93.24-0.35 94.96-1 96.69-1.65 97.51-3.48 98.34-5.3 98.34-8.8L98.34-8.8 98.34-18.05Q98.34-21.65 96.31-22.98 94.29-24.3 90.54-24.3L90.54-24.3Q86.79-24.3 84.76-22.98 82.74-21.65 82.74-18.05L82.74-18.05 82.74-8.8Q82.74-5.3 83.56-3.48 84.39-1.65 86.14-1 87.89-0.35 90.54-0.35ZM90.54-0.8L90.54-0.8Q87.99-0.8 86.34-1.43 84.69-2.05 83.91-3.78 83.14-5.5 83.14-8.8L83.14-8.8 83.14-18.05Q83.14-21.4 85.04-22.63 86.94-23.85 90.54-23.85L90.54-23.85Q94.09-23.85 95.99-22.63 97.89-21.4 97.89-18.05L97.89-18.05 97.89-8.8Q97.89-5.5 97.11-3.78 96.34-2.05 94.71-1.43 93.09-0.8 90.54-0.8ZM90.54-4.4L90.54-4.4Q91.09-4.4 91.19-4.83 91.29-5.25 91.29-5.6L91.29-5.6 91.29-19.1Q91.29-19.8 91.11-20.05 90.94-20.3 90.54-20.3L90.54-20.3Q90.19-20.3 89.99-20.08 89.79-19.85 89.79-19.1L89.79-19.1 89.79-5.6Q89.79-5.1 89.91-4.75 90.04-4.4 90.54-4.4ZM90.54-4.85L90.54-4.85Q90.24-4.85 90.24-5.6L90.24-5.6 90.24-19.1Q90.24-19.85 90.54-19.85L90.54-19.85Q90.84-19.85 90.84-19.1L90.84-19.1 90.84-5.6Q90.84-4.85 90.54-4.85ZM109.19 5.3L99.99 5.3 99.99-24.95 109.14-24.95 109.14-24.75Q109.74-25.05 110.41-25.15 111.09-25.25 111.74-25.25L111.74-25.25Q113.19-25.25 114.44-24.68 115.69-24.1 116.49-22.73 117.29-21.35 117.29-18.85L117.29-18.85 117.29-8.4Q117.29-3.7 115.74-1.73 114.19 0.25 111.29 0.25L111.29 0.25Q109.94 0.25 109.19-0.1L109.19-0.1 109.19 5.3ZM100.84-24.05L100.84 4.4 108.34 4.4 108.34-1.7Q108.84-1.25 109.56-0.95 110.29-0.65 111.29-0.65L111.29-0.65Q113.79-0.65 115.11-2.4 116.44-4.15 116.44-8.4L116.44-8.4 116.44-18.85Q116.44-22.1 114.99-23.25 113.54-24.4 111.54-24.4L111.54-24.4Q110.39-24.4 109.61-24.08 108.84-23.75 108.34-23.3L108.34-23.3 108.34-24.05 100.84-24.05ZM107.89 3.9L101.24 3.9 101.24-23.6 107.89-23.6 107.89-22Q108.34-22.65 109.09-23.3 109.84-23.95 111.54-23.95L111.54-23.95Q113.39-23.95 114.69-22.88 115.99-21.8 115.99-18.85L115.99-18.85 115.99-8.4Q115.99-4.4 114.81-2.75 113.64-1.1 111.29-1.1L111.29-1.1Q109.84-1.1 109.06-1.68 108.29-2.25 107.89-3L107.89-3 107.89 3.9ZM108.64-5L108.64-5Q109.39-5 109.39-6.4L109.39-6.4 109.39-18.4Q109.39-19.6 108.49-19.6L108.49-19.6Q108.09-19.6 107.89-19.5L107.89-19.5 107.89-6.4Q107.89-5 108.64-5ZM108.64-5.45L108.64-5.45Q108.34-5.45 108.34-6.2L108.34-6.2 108.34-19.15 108.54-19.15Q108.94-19.15 108.94-18.5L108.94-18.5 108.94-6.2Q108.94-5.45 108.64-5.45ZM126.63 0.55L126.63 0.55Q123.63 0.55 121.73-0.18 119.83-0.9 118.91-2.9 117.98-4.9 117.98-8.8L117.98-8.8 117.98-18.05Q117.98-22.1 120.23-23.65 122.48-25.2 126.63-25.2L126.63-25.2Q130.78-25.2 133.03-23.65 135.28-22.1 135.28-18.05L135.28-18.05 135.28-8.8Q135.28-4.9 134.33-2.9 133.38-0.9 131.48-0.18 129.58 0.55 126.63 0.55ZM126.63-0.35L126.63-0.35Q129.33-0.35 131.06-1 132.78-1.65 133.61-3.48 134.43-5.3 134.43-8.8L134.43-8.8 134.43-10.2 126.93-10.2 126.93-5.75Q126.93-5.2 126.86-5.03 126.78-4.85 126.63-4.85L126.63-4.85Q126.33-4.85 126.33-5.75L126.33-5.75 126.33-11.35 134.43-11.35 134.43-18.05Q134.43-21.65 132.41-22.98 130.38-24.3 126.63-24.3L126.63-24.3Q122.88-24.3 120.86-22.98 118.83-21.65 118.83-18.05L118.83-18.05 118.83-8.8Q118.83-5.3 119.66-3.48 120.48-1.65 122.23-1 123.98-0.35 126.63-0.35ZM126.63-0.8L126.63-0.8Q124.08-0.8 122.43-1.43 120.78-2.05 120.01-3.78 119.23-5.5 119.23-8.8L119.23-8.8 119.23-18.05Q119.23-21.4 121.13-22.63 123.03-23.85 126.63-23.85L126.63-23.85Q130.18-23.85 132.08-22.63 133.98-21.4 133.98-18.05L133.98-18.05 133.98-11.8 125.88-11.8 125.88-5.75Q125.88-4.95 126.08-4.67 126.28-4.4 126.63-4.4L126.63-4.4Q127.33-4.4 127.33-5.75L127.33-5.75 127.33-9.75 133.98-9.75 133.98-8.8Q133.98-5.5 133.21-3.78 132.43-2.05 130.81-1.43 129.18-0.8 126.63-0.8ZM125.88-19.05L125.88-14.8 127.33-14.8 127.33-19.05Q127.33-20.3 126.63-20.3L126.63-20.3Q126.28-20.3 126.08-20.05 125.88-19.8 125.88-19.05L125.88-19.05ZM126.93-15.25L126.33-15.25 126.33-19.1Q126.33-19.85 126.63-19.85L126.63-19.85Q126.93-19.85 126.93-19.1L126.93-19.1 126.93-15.25ZM144.68 0L135.83 0 135.83-24.75 143.73-24.75 143.73-23.55Q144.88-24.4 146.41-24.68 147.93-24.95 149.53-24.55L149.53-24.55 149.53-16.55Q148.83-16.7 148.26-16.82 147.68-16.95 146.88-16.95L146.88-16.95Q145.48-16.95 145.08-16.28 144.68-15.6 144.68-13.8L144.68-13.8 144.68 0ZM136.63-23.9L136.63-0.9 143.88-0.9 143.88-13.8Q143.88-16.2 144.53-17.03 145.18-17.85 146.88-17.85L146.88-17.85Q147.28-17.85 147.81-17.8 148.33-17.75 148.73-17.65L148.73-17.65 148.73-23.85Q147.08-24.25 145.58-23.7 144.08-23.15 143.23-21.85L143.23-21.85 142.88-23.9 136.63-23.9ZM143.48-1.35L137.08-1.35 137.08-23.45 142.53-23.45 143.03-20.6Q143.63-22.35 145.13-23.1 146.63-23.85 148.28-23.5L148.28-23.5 148.28-18.15Q147.93-18.2 147.58-18.23 147.23-18.25 146.88-18.25L146.88-18.25Q144.98-18.25 144.23-17.32 143.48-16.4 143.48-13.8L143.48-13.8 143.48-1.35Z" opacity="1" transform="matrix(1,0,0,1,0,0)" fill="black" class="slogan-text-1" id="SvgjsPath2999"></path></svg></g></svg></g></svg></g></svg></g></svg></g></svg></g></svg></g></svg></g><defs><mask></mask></defs></svg><rect width="512" height="320" fill="black" stroke="none" visibility="hidden"></rect></g></mask></svg><rect width="512" height="320" fill="black" stroke="none" visibility="hidden"></rect></g></mask><linearGradient x1="0.054" x2="0.941" y1="0.5" y2="0.5" id="c8ab3f05-8c3b-4570-bd5f-81a71baeb04c"><stop stop-color="#0f3054" offset="0"></stop><stop stop-color="#3b8dcb" offset="0.498"></stop><stop stop-color="#0f3054" offset="1"></stop></linearGradient><rect width="512" height="320" fill="url(#c8ab3f05-8c3b-4570-bd5f-81a71baeb04c)" mask="url(#942aa58d-6044-4826-94bc-4aba7ab9694d)" data-fill-palette-color="secondary"></rect><mask id="9454ff52-901e-4328-8af3-a4260cd81927"><g id="SvgjsG3047"><svg viewBox="0 0 512 320" height="320" width="512"><g><svg></svg></g><g><svg viewBox="0 0 512 320" height="320" width="512"><g><path d="M96 160c0-88.366 71.634-160 160-160 88.366 0 160 71.634 160 160 0 88.366-71.634 160-160 160-88.366 0-160-71.634-160-160zM256 300.734c77.725 0 140.734-63.009 140.734-140.734 0-77.725-63.009-140.734-140.734-140.734-77.725 0-140.734 63.009-140.734 140.734 0 77.725 63.009 140.734 140.734 140.734z" fill="white" fill-rule="nonzero" stroke="none" stroke-width="1" stroke-linecap="butt" stroke-linejoin="miter" stroke-miterlimit="10" stroke-dasharray="" stroke-dashoffset="0" font-family="none" font-weight="none" font-size="none" text-anchor="none" style="mix-blend-mode: normal"></path></g><g transform="matrix(1,0,0,1,199.38661341550832,80)"><svg viewBox="0 0 113.22677316898336 160" height="160" width="113.22677316898336"><g><svg viewBox="0 0 113.22677316898336 160" height="160" width="113.22677316898336"><g><svg viewBox="0 0 168.551872 238.1795291450338" height="160" width="113.22677316898336"><g><svg viewBox="0 0 168.551872 238.1795291450338" height="238.1795291450338" width="168.551872"><g id="SvgjsG3046"><svg viewBox="0 0 168.551872 238.1795291450338" height="238.1795291450338" width="168.551872" id="SvgjsSvg3045"><g><svg viewBox="0 0 168.551872 159.0112" height="159.0112" width="168.551872"><g transform="matrix(1,0,0,1,0,0)"><svg width="168.551872" viewBox="-0.8 -33.7 37.099999999999994 35" height="159.0112" data-palette-color="url(#3f897bfa-6aa0-4060-8417-06bfec66697c)"><g class="wordmark-text-0" data-fill-palette-color="primary" id="SvgjsG3044"></g></svg></g></svg></g><g transform="matrix(1,0,0,1,0,196.5499280512)"><svg viewBox="0 0 168.551872 41.62960109383379" height="41.62960109383379" width="168.551872"><g transform="matrix(1,0,0,1,0,0)"><svg width="168.551872" viewBox="0.35 -31.55 149.18 36.85" height="41.62960109383379" data-palette-color="url(#c8ab3f05-8c3b-4570-bd5f-81a71baeb04c)"></svg></g></svg></g></svg></g></svg></g></svg></g></svg></g></svg></g></svg></g><defs><mask></mask></defs><mask><g id="SvgjsG3043"><svg viewBox="0 0 512 320" height="320" width="512"><g><svg></svg></g><g><svg viewBox="0 0 512 320" height="320" width="512"><g><path d="M96 160c0-88.366 71.634-160 160-160 88.366 0 160 71.634 160 160 0 88.366-71.634 160-160 160-88.366 0-160-71.634-160-160zM256 300.734c77.725 0 140.734-63.009 140.734-140.734 0-77.725-63.009-140.734-140.734-140.734-77.725 0-140.734 63.009-140.734 140.734 0 77.725 63.009 140.734 140.734 140.734z" fill="black" fill-rule="nonzero" stroke="none" stroke-width="1" stroke-linecap="butt" stroke-linejoin="miter" stroke-miterlimit="10" stroke-dasharray="" stroke-dashoffset="0" font-family="none" font-weight="none" font-size="none" text-anchor="none" style="mix-blend-mode: normal"></path></g><g transform="matrix(1,0,0,1,199.38661341550832,80)"><svg viewBox="0 0 113.22677316898336 160" height="160" width="113.22677316898336"><g><svg viewBox="0 0 113.22677316898336 160" height="160" width="113.22677316898336"><g><svg viewBox="0 0 168.551872 238.1795291450338" height="160" width="113.22677316898336"><g><svg viewBox="0 0 168.551872 238.1795291450338" height="238.1795291450338" width="168.551872"><g id="SvgjsG3042"><svg viewBox="0 0 168.551872 238.1795291450338" height="238.1795291450338" width="168.551872" id="SvgjsSvg3041"><g><svg viewBox="0 0 168.551872 159.0112" height="159.0112" width="168.551872"><g transform="matrix(1,0,0,1,0,0)"><svg width="168.551872" viewBox="-0.8 -33.7 37.099999999999994 35" height="159.0112" data-palette-color="url(#3f897bfa-6aa0-4060-8417-06bfec66697c)"><g class="wordmark-text-0" data-fill-palette-color="primary" id="SvgjsG3040"><path d="M-0.4 1.3L-0.4 1.3Q-0.8 1.3-0.8 0.85L-0.8 0.85Q-0.8 0.75-0.78 0.63-0.75 0.5-0.7 0.35L-0.7 0.35Q-0.35-1 1.13-3.63 2.6-6.25 4.6-9.35L4.6-9.35Q2.6-9.85 1.3-10.85L1.3-10.85Q-0.2-12.05-0.2-13.55L-0.2-13.55Q-0.2-14.7 0.7-15.5L0.7-15.5Q0.9-15.7 1.05-15.7L1.05-15.7Q1.15-15.7 1.15-15.55L1.15-15.55Q1.15-15.25 0.9-15L0.9-15Q0.55-14.5 0.55-13.8L0.55-13.8Q0.55-13.2 0.83-12.6 1.1-12 1.75-11.5L1.75-11.5Q3.15-10.4 5.1-10.1L5.1-10.1Q7-12.95 9.03-15.78 11.05-18.6 12.88-20.95 14.7-23.3 15.95-24.73 17.2-26.15 17.55-26.15L17.55-26.15Q17.9-26.15 18.1-25.78 18.3-25.4 18.3-25.1L18.3-25.1Q18.3-25.1 17.25-23.78 16.2-22.45 14.5-20.25 12.8-18.05 10.8-15.35 8.8-12.65 6.85-9.85L6.85-9.85Q9.5-9.7 12.55-10.3 15.6-10.9 18.57-11.9 21.55-12.9 24.03-14.05 26.5-15.2 27.95-16.15L27.95-16.15Q31-18.2 32.43-20.38 33.85-22.55 33.85-24.45L33.85-24.45Q33.85-26.9 31.68-28.5 29.5-30.1 25.45-30.1L25.45-30.1Q24.3-30.1 22.95-29.95L22.95-29.95Q20.8-29.7 18.1-29.1 15.4-28.5 12.7-27.63 10-26.75 7.75-25.75 5.5-24.75 4.2-23.65L4.2-23.65Q3.35-23 3.65-22.5L3.65-22.5Q3.75-22.35 3.75-22.2L3.75-22.2Q3.75-22.1 3.6-22.13 3.45-22.15 3.3-22.25L3.3-22.25Q2.5-22.75 2.1-23.55 1.7-24.35 1.7-25L1.7-25Q1.7-25.25 1.78-25.45 1.85-25.65 1.9-25.8L1.9-25.8Q2.9-27.2 5.28-28.48 7.65-29.75 10.83-30.8 14-31.85 17.45-32.58 20.9-33.3 24-33.6L24-33.6Q24.6-33.65 25.18-33.68 25.75-33.7 26.25-33.7L26.25-33.7Q31.45-33.7 33.88-31.53 36.3-29.35 36.3-26.25L36.3-26.25Q36.3-23.4 34.27-20.3 32.25-17.2 28.4-14.95L28.4-14.95Q26.85-14.05 24.5-13.03 22.15-12 19.35-11.08 16.55-10.15 13.65-9.55 10.75-8.95 8.1-8.95L8.1-8.95Q7.6-8.95 7.15-8.97 6.7-9 6.25-9.05L6.25-9.05Q4.35-6.3 2.83-3.78 1.3-1.25 0.6 0.5L0.6 0.5Q0.5 0.85 0.18 1.07-0.15 1.3-0.4 1.3Z" fill="black"></path></g></svg></g></svg></g><g transform="matrix(1,0,0,1,0,196.5499280512)"><svg viewBox="0 0 168.551872 41.62960109383379" height="41.62960109383379" width="168.551872"><g transform="matrix(1,0,0,1,0,0)"><svg width="168.551872" viewBox="0.35 -31.55 149.18 36.85" height="41.62960109383379" data-palette-color="url(#c8ab3f05-8c3b-4570-bd5f-81a71baeb04c)"><path d="M7.45 0.3L7.45 0.3Q5.05 0.3 3.48-0.38 1.9-1.05 1.13-2.93 0.35-4.8 0.35-8.4L0.35-8.4 0.35-19.25Q0.35-21.65 1.23-22.98 2.1-24.3 3.43-24.83 4.75-25.35 6.1-25.35L6.1-25.35Q7.55-25.35 8.45-24.95L8.45-24.95 8.45-31.55 17.65-31.55 17.65 0 11 0 10.75-0.8Q10.2-0.35 9.38-0.03 8.55 0.3 7.45 0.3ZM7.45-0.6L7.45-0.6Q8.9-0.6 9.78-1.23 10.65-1.85 11.1-2.45L11.1-2.45 11.6-0.9 16.8-0.9 16.8-30.6 9.3-30.6 9.3-23.35Q8.8-23.85 8.05-24.15 7.3-24.45 6.1-24.45L6.1-24.45Q4.95-24.45 3.8-24 2.65-23.55 1.93-22.43 1.2-21.3 1.2-19.25L1.2-19.25 1.2-8.4Q1.2-5.15 1.88-3.48 2.55-1.8 3.93-1.2 5.3-0.6 7.45-0.6ZM7.45-1.05L7.45-1.05Q5.5-1.05 4.2-1.6 2.9-2.15 2.27-3.75 1.65-5.35 1.65-8.4L1.65-8.4 1.65-19.25Q1.65-21.1 2.33-22.1 3-23.1 4.03-23.53 5.05-23.95 6.1-23.95L6.1-23.95Q7.8-23.95 8.58-23.38 9.35-22.8 9.75-22.15L9.75-22.15 9.75-30.15 16.35-30.15 16.35-1.35 11.9-1.35 11.2-3.5Q10.9-2.8 9.98-1.93 9.05-1.05 7.45-1.05ZM9-5.05L9-5.05Q9.75-5.05 9.75-6.4L9.75-6.4 9.75-19.9Q9.6-19.95 9.43-19.98 9.25-20 9-20L9-20Q8.3-20 8.3-18.65L8.3-18.65 8.3-6.4Q8.3-5.05 9-5.05ZM9-5.5L9-5.5Q8.7-5.5 8.7-6.4L8.7-6.4 8.7-18.65Q8.7-19.55 9-19.55L9-19.55 9.3-19.55 9.3-6.4Q9.3-5.5 9-5.5ZM27.1 0.55L27.1 0.55Q24.1 0.55 22.2-0.18 20.3-0.9 19.37-2.9 18.45-4.9 18.45-8.8L18.45-8.8 18.45-18.05Q18.45-22.1 20.7-23.65 22.95-25.2 27.1-25.2L27.1-25.2Q31.25-25.2 33.5-23.65 35.75-22.1 35.75-18.05L35.75-18.05 35.75-8.8Q35.75-4.9 34.8-2.9 33.85-0.9 31.95-0.18 30.05 0.55 27.1 0.55ZM27.1-0.35L27.1-0.35Q29.8-0.35 31.52-1 33.25-1.65 34.07-3.48 34.9-5.3 34.9-8.8L34.9-8.8 34.9-10.2 27.4-10.2 27.4-5.75Q27.4-5.2 27.32-5.03 27.25-4.85 27.1-4.85L27.1-4.85Q26.8-4.85 26.8-5.75L26.8-5.75 26.8-11.35 34.9-11.35 34.9-18.05Q34.9-21.65 32.87-22.98 30.85-24.3 27.1-24.3L27.1-24.3Q23.35-24.3 21.32-22.98 19.3-21.65 19.3-18.05L19.3-18.05 19.3-8.8Q19.3-5.3 20.12-3.48 20.95-1.65 22.7-1 24.45-0.35 27.1-0.35ZM27.1-0.8L27.1-0.8Q24.55-0.8 22.9-1.43 21.25-2.05 20.47-3.78 19.7-5.5 19.7-8.8L19.7-8.8 19.7-18.05Q19.7-21.4 21.6-22.63 23.5-23.85 27.1-23.85L27.1-23.85Q30.65-23.85 32.55-22.63 34.45-21.4 34.45-18.05L34.45-18.05 34.45-11.8 26.35-11.8 26.35-5.75Q26.35-4.95 26.55-4.67 26.75-4.4 27.1-4.4L27.1-4.4Q27.8-4.4 27.8-5.75L27.8-5.75 27.8-9.75 34.45-9.75 34.45-8.8Q34.45-5.5 33.67-3.78 32.9-2.05 31.27-1.43 29.65-0.8 27.1-0.8ZM26.35-19.05L26.35-14.8 27.8-14.8 27.8-19.05Q27.8-20.3 27.1-20.3L27.1-20.3Q26.75-20.3 26.55-20.05 26.35-19.8 26.35-19.05L26.35-19.05ZM27.4-15.25L26.8-15.25 26.8-19.1Q26.8-19.85 27.1-19.85L27.1-19.85Q27.4-19.85 27.4-19.1L27.4-19.1 27.4-15.25ZM50.95 0L40.74 0 35.95-24.75 45.59-24.75 46.14-20.85 46.55-24.75 55.7-24.75 50.95 0ZM36.99-23.85L41.45-0.9 50.24-0.9 54.64-23.85 47.34-23.85 46.2-13.8 44.89-23.85 36.99-23.85ZM49.89-1.35L41.8-1.35 37.55-23.4 44.49-23.4 46.2-10.55 46.24-9.55 46.3-10.55 47.74-23.4 54.14-23.4 49.89-1.35ZM64.09 0.55L64.09 0.55Q61.09 0.55 59.19-0.18 57.29-0.9 56.37-2.9 55.44-4.9 55.44-8.8L55.44-8.8 55.44-18.05Q55.44-22.1 57.69-23.65 59.94-25.2 64.09-25.2L64.09-25.2Q68.24-25.2 70.49-23.65 72.74-22.1 72.74-18.05L72.74-18.05 72.74-8.8Q72.74-4.9 71.79-2.9 70.84-0.9 68.94-0.18 67.04 0.55 64.09 0.55ZM64.09-0.35L64.09-0.35Q66.79-0.35 68.52-1 70.24-1.65 71.07-3.48 71.89-5.3 71.89-8.8L71.89-8.8 71.89-10.2 64.39-10.2 64.39-5.75Q64.39-5.2 64.32-5.03 64.24-4.85 64.09-4.85L64.09-4.85Q63.79-4.85 63.79-5.75L63.79-5.75 63.79-11.35 71.89-11.35 71.89-18.05Q71.89-21.65 69.87-22.98 67.84-24.3 64.09-24.3L64.09-24.3Q60.34-24.3 58.32-22.98 56.29-21.65 56.29-18.05L56.29-18.05 56.29-8.8Q56.29-5.3 57.12-3.48 57.94-1.65 59.69-1 61.44-0.35 64.09-0.35ZM64.09-0.8L64.09-0.8Q61.54-0.8 59.89-1.43 58.24-2.05 57.47-3.78 56.69-5.5 56.69-8.8L56.69-8.8 56.69-18.05Q56.69-21.4 58.59-22.63 60.49-23.85 64.09-23.85L64.09-23.85Q67.64-23.85 69.54-22.63 71.44-21.4 71.44-18.05L71.44-18.05 71.44-11.8 63.34-11.8 63.34-5.75Q63.34-4.95 63.54-4.67 63.74-4.4 64.09-4.4L64.09-4.4Q64.79-4.4 64.79-5.75L64.79-5.75 64.79-9.75 71.44-9.75 71.44-8.8Q71.44-5.5 70.67-3.78 69.89-2.05 68.27-1.43 66.64-0.8 64.09-0.8ZM63.34-19.05L63.34-14.8 64.79-14.8 64.79-19.05Q64.79-20.3 64.09-20.3L64.09-20.3Q63.74-20.3 63.54-20.05 63.34-19.8 63.34-19.05L63.34-19.05ZM64.39-15.25L63.79-15.25 63.79-19.1Q63.79-19.85 64.09-19.85L64.09-19.85Q64.39-19.85 64.39-19.1L64.39-19.1 64.39-15.25ZM81.09 0L73.29 0 73.29-31.5 81.09-31.5 81.09 0ZM73.99-30.6L73.99-0.9 80.39-0.9 80.39-30.6 73.99-30.6ZM79.99-1.35L74.39-1.35 74.39-30.15 79.99-30.15 79.99-1.35ZM90.54 0.55L90.54 0.55Q87.54 0.55 85.64-0.18 83.74-0.9 82.81-2.9 81.89-4.9 81.89-8.8L81.89-8.8 81.89-18.05Q81.89-22.1 84.14-23.65 86.39-25.2 90.54-25.2L90.54-25.2Q94.69-25.2 96.94-23.65 99.19-22.1 99.19-18.05L99.19-18.05 99.19-8.8Q99.19-4.9 98.24-2.9 97.29-0.9 95.39-0.18 93.49 0.55 90.54 0.55ZM90.54-0.35L90.54-0.35Q93.24-0.35 94.96-1 96.69-1.65 97.51-3.48 98.34-5.3 98.34-8.8L98.34-8.8 98.34-18.05Q98.34-21.65 96.31-22.98 94.29-24.3 90.54-24.3L90.54-24.3Q86.79-24.3 84.76-22.98 82.74-21.65 82.74-18.05L82.74-18.05 82.74-8.8Q82.74-5.3 83.56-3.48 84.39-1.65 86.14-1 87.89-0.35 90.54-0.35ZM90.54-0.8L90.54-0.8Q87.99-0.8 86.34-1.43 84.69-2.05 83.91-3.78 83.14-5.5 83.14-8.8L83.14-8.8 83.14-18.05Q83.14-21.4 85.04-22.63 86.94-23.85 90.54-23.85L90.54-23.85Q94.09-23.85 95.99-22.63 97.89-21.4 97.89-18.05L97.89-18.05 97.89-8.8Q97.89-5.5 97.11-3.78 96.34-2.05 94.71-1.43 93.09-0.8 90.54-0.8ZM90.54-4.4L90.54-4.4Q91.09-4.4 91.19-4.83 91.29-5.25 91.29-5.6L91.29-5.6 91.29-19.1Q91.29-19.8 91.11-20.05 90.94-20.3 90.54-20.3L90.54-20.3Q90.19-20.3 89.99-20.08 89.79-19.85 89.79-19.1L89.79-19.1 89.79-5.6Q89.79-5.1 89.91-4.75 90.04-4.4 90.54-4.4ZM90.54-4.85L90.54-4.85Q90.24-4.85 90.24-5.6L90.24-5.6 90.24-19.1Q90.24-19.85 90.54-19.85L90.54-19.85Q90.84-19.85 90.84-19.1L90.84-19.1 90.84-5.6Q90.84-4.85 90.54-4.85ZM109.19 5.3L99.99 5.3 99.99-24.95 109.14-24.95 109.14-24.75Q109.74-25.05 110.41-25.15 111.09-25.25 111.74-25.25L111.74-25.25Q113.19-25.25 114.44-24.68 115.69-24.1 116.49-22.73 117.29-21.35 117.29-18.85L117.29-18.85 117.29-8.4Q117.29-3.7 115.74-1.73 114.19 0.25 111.29 0.25L111.29 0.25Q109.94 0.25 109.19-0.1L109.19-0.1 109.19 5.3ZM100.84-24.05L100.84 4.4 108.34 4.4 108.34-1.7Q108.84-1.25 109.56-0.95 110.29-0.65 111.29-0.65L111.29-0.65Q113.79-0.65 115.11-2.4 116.44-4.15 116.44-8.4L116.44-8.4 116.44-18.85Q116.44-22.1 114.99-23.25 113.54-24.4 111.54-24.4L111.54-24.4Q110.39-24.4 109.61-24.08 108.84-23.75 108.34-23.3L108.34-23.3 108.34-24.05 100.84-24.05ZM107.89 3.9L101.24 3.9 101.24-23.6 107.89-23.6 107.89-22Q108.34-22.65 109.09-23.3 109.84-23.95 111.54-23.95L111.54-23.95Q113.39-23.95 114.69-22.88 115.99-21.8 115.99-18.85L115.99-18.85 115.99-8.4Q115.99-4.4 114.81-2.75 113.64-1.1 111.29-1.1L111.29-1.1Q109.84-1.1 109.06-1.68 108.29-2.25 107.89-3L107.89-3 107.89 3.9ZM108.64-5L108.64-5Q109.39-5 109.39-6.4L109.39-6.4 109.39-18.4Q109.39-19.6 108.49-19.6L108.49-19.6Q108.09-19.6 107.89-19.5L107.89-19.5 107.89-6.4Q107.89-5 108.64-5ZM108.64-5.45L108.64-5.45Q108.34-5.45 108.34-6.2L108.34-6.2 108.34-19.15 108.54-19.15Q108.94-19.15 108.94-18.5L108.94-18.5 108.94-6.2Q108.94-5.45 108.64-5.45ZM126.63 0.55L126.63 0.55Q123.63 0.55 121.73-0.18 119.83-0.9 118.91-2.9 117.98-4.9 117.98-8.8L117.98-8.8 117.98-18.05Q117.98-22.1 120.23-23.65 122.48-25.2 126.63-25.2L126.63-25.2Q130.78-25.2 133.03-23.65 135.28-22.1 135.28-18.05L135.28-18.05 135.28-8.8Q135.28-4.9 134.33-2.9 133.38-0.9 131.48-0.18 129.58 0.55 126.63 0.55ZM126.63-0.35L126.63-0.35Q129.33-0.35 131.06-1 132.78-1.65 133.61-3.48 134.43-5.3 134.43-8.8L134.43-8.8 134.43-10.2 126.93-10.2 126.93-5.75Q126.93-5.2 126.86-5.03 126.78-4.85 126.63-4.85L126.63-4.85Q126.33-4.85 126.33-5.75L126.33-5.75 126.33-11.35 134.43-11.35 134.43-18.05Q134.43-21.65 132.41-22.98 130.38-24.3 126.63-24.3L126.63-24.3Q122.88-24.3 120.86-22.98 118.83-21.65 118.83-18.05L118.83-18.05 118.83-8.8Q118.83-5.3 119.66-3.48 120.48-1.65 122.23-1 123.98-0.35 126.63-0.35ZM126.63-0.8L126.63-0.8Q124.08-0.8 122.43-1.43 120.78-2.05 120.01-3.78 119.23-5.5 119.23-8.8L119.23-8.8 119.23-18.05Q119.23-21.4 121.13-22.63 123.03-23.85 126.63-23.85L126.63-23.85Q130.18-23.85 132.08-22.63 133.98-21.4 133.98-18.05L133.98-18.05 133.98-11.8 125.88-11.8 125.88-5.75Q125.88-4.95 126.08-4.67 126.28-4.4 126.63-4.4L126.63-4.4Q127.33-4.4 127.33-5.75L127.33-5.75 127.33-9.75 133.98-9.75 133.98-8.8Q133.98-5.5 133.21-3.78 132.43-2.05 130.81-1.43 129.18-0.8 126.63-0.8ZM125.88-19.05L125.88-14.8 127.33-14.8 127.33-19.05Q127.33-20.3 126.63-20.3L126.63-20.3Q126.28-20.3 126.08-20.05 125.88-19.8 125.88-19.05L125.88-19.05ZM126.93-15.25L126.33-15.25 126.33-19.1Q126.33-19.85 126.63-19.85L126.63-19.85Q126.93-19.85 126.93-19.1L126.93-19.1 126.93-15.25ZM144.68 0L135.83 0 135.83-24.75 143.73-24.75 143.73-23.55Q144.88-24.4 146.41-24.68 147.93-24.95 149.53-24.55L149.53-24.55 149.53-16.55Q148.83-16.7 148.26-16.82 147.68-16.95 146.88-16.95L146.88-16.95Q145.48-16.95 145.08-16.28 144.68-15.6 144.68-13.8L144.68-13.8 144.68 0ZM136.63-23.9L136.63-0.9 143.88-0.9 143.88-13.8Q143.88-16.2 144.53-17.03 145.18-17.85 146.88-17.85L146.88-17.85Q147.28-17.85 147.81-17.8 148.33-17.75 148.73-17.65L148.73-17.65 148.73-23.85Q147.08-24.25 145.58-23.7 144.08-23.15 143.23-21.85L143.23-21.85 142.88-23.9 136.63-23.9ZM143.48-1.35L137.08-1.35 137.08-23.45 142.53-23.45 143.03-20.6Q143.63-22.35 145.13-23.1 146.63-23.85 148.28-23.5L148.28-23.5 148.28-18.15Q147.93-18.2 147.58-18.23 147.23-18.25 146.88-18.25L146.88-18.25Q144.98-18.25 144.23-17.32 143.48-16.4 143.48-13.8L143.48-13.8 143.48-1.35Z" opacity="1" transform="matrix(1,0,0,1,0,0)" fill="black" class="slogan-text-1" id="SvgjsPath3039"></path></svg></g></svg></g></svg></g></svg></g></svg></g></svg></g></svg></g></svg></g><defs><mask></mask></defs></svg><rect width="512" height="320" fill="black" stroke="none" visibility="hidden"></rect></g></mask><mask><g id="SvgjsG3038"><svg viewBox="0 0 512 320" height="320" width="512"><g><svg></svg></g><g><svg viewBox="0 0 512 320" height="320" width="512"><g><path d="M96 160c0-88.366 71.634-160 160-160 88.366 0 160 71.634 160 160 0 88.366-71.634 160-160 160-88.366 0-160-71.634-160-160zM256 300.734c77.725 0 140.734-63.009 140.734-140.734 0-77.725-63.009-140.734-140.734-140.734-77.725 0-140.734 63.009-140.734 140.734 0 77.725 63.009 140.734 140.734 140.734z" fill="black" fill-rule="nonzero" stroke="none" stroke-width="1" stroke-linecap="butt" stroke-linejoin="miter" stroke-miterlimit="10" stroke-dasharray="" stroke-dashoffset="0" font-family="none" font-weight="none" font-size="none" text-anchor="none" style="mix-blend-mode: normal"></path></g><g transform="matrix(1,0,0,1,199.38661341550832,80)"><svg viewBox="0 0 113.22677316898336 160" height="160" width="113.22677316898336"><g><svg viewBox="0 0 113.22677316898336 160" height="160" width="113.22677316898336"><g><svg viewBox="0 0 168.551872 238.1795291450338" height="160" width="113.22677316898336"><g><svg viewBox="0 0 168.551872 238.1795291450338" height="238.1795291450338" width="168.551872"><g id="SvgjsG3037"><svg viewBox="0 0 168.551872 238.1795291450338" height="238.1795291450338" width="168.551872" id="SvgjsSvg3036"><g><svg viewBox="0 0 168.551872 159.0112" height="159.0112" width="168.551872"><g transform="matrix(1,0,0,1,0,0)"><svg width="168.551872" viewBox="-0.8 -33.7 37.099999999999994 35" height="159.0112" data-palette-color="url(#3f897bfa-6aa0-4060-8417-06bfec66697c)"><g class="wordmark-text-0" data-fill-palette-color="primary" id="SvgjsG3035"></g></svg></g></svg></g><g transform="matrix(1,0,0,1,0,196.5499280512)"><svg viewBox="0 0 168.551872 41.62960109383379" height="41.62960109383379" width="168.551872"><g transform="matrix(1,0,0,1,0,0)"><svg width="168.551872" viewBox="0.35 -31.55 149.18 36.85" height="41.62960109383379" data-palette-color="url(#c8ab3f05-8c3b-4570-bd5f-81a71baeb04c)"><path d="M7.45 0.3L7.45 0.3Q5.05 0.3 3.48-0.38 1.9-1.05 1.13-2.93 0.35-4.8 0.35-8.4L0.35-8.4 0.35-19.25Q0.35-21.65 1.23-22.98 2.1-24.3 3.43-24.83 4.75-25.35 6.1-25.35L6.1-25.35Q7.55-25.35 8.45-24.95L8.45-24.95 8.45-31.55 17.65-31.55 17.65 0 11 0 10.75-0.8Q10.2-0.35 9.38-0.03 8.55 0.3 7.45 0.3ZM7.45-0.6L7.45-0.6Q8.9-0.6 9.78-1.23 10.65-1.85 11.1-2.45L11.1-2.45 11.6-0.9 16.8-0.9 16.8-30.6 9.3-30.6 9.3-23.35Q8.8-23.85 8.05-24.15 7.3-24.45 6.1-24.45L6.1-24.45Q4.95-24.45 3.8-24 2.65-23.55 1.93-22.43 1.2-21.3 1.2-19.25L1.2-19.25 1.2-8.4Q1.2-5.15 1.88-3.48 2.55-1.8 3.93-1.2 5.3-0.6 7.45-0.6ZM7.45-1.05L7.45-1.05Q5.5-1.05 4.2-1.6 2.9-2.15 2.27-3.75 1.65-5.35 1.65-8.4L1.65-8.4 1.65-19.25Q1.65-21.1 2.33-22.1 3-23.1 4.03-23.53 5.05-23.95 6.1-23.95L6.1-23.95Q7.8-23.95 8.58-23.38 9.35-22.8 9.75-22.15L9.75-22.15 9.75-30.15 16.35-30.15 16.35-1.35 11.9-1.35 11.2-3.5Q10.9-2.8 9.98-1.93 9.05-1.05 7.45-1.05ZM9-5.05L9-5.05Q9.75-5.05 9.75-6.4L9.75-6.4 9.75-19.9Q9.6-19.95 9.43-19.98 9.25-20 9-20L9-20Q8.3-20 8.3-18.65L8.3-18.65 8.3-6.4Q8.3-5.05 9-5.05ZM9-5.5L9-5.5Q8.7-5.5 8.7-6.4L8.7-6.4 8.7-18.65Q8.7-19.55 9-19.55L9-19.55 9.3-19.55 9.3-6.4Q9.3-5.5 9-5.5ZM27.1 0.55L27.1 0.55Q24.1 0.55 22.2-0.18 20.3-0.9 19.37-2.9 18.45-4.9 18.45-8.8L18.45-8.8 18.45-18.05Q18.45-22.1 20.7-23.65 22.95-25.2 27.1-25.2L27.1-25.2Q31.25-25.2 33.5-23.65 35.75-22.1 35.75-18.05L35.75-18.05 35.75-8.8Q35.75-4.9 34.8-2.9 33.85-0.9 31.95-0.18 30.05 0.55 27.1 0.55ZM27.1-0.35L27.1-0.35Q29.8-0.35 31.52-1 33.25-1.65 34.07-3.48 34.9-5.3 34.9-8.8L34.9-8.8 34.9-10.2 27.4-10.2 27.4-5.75Q27.4-5.2 27.32-5.03 27.25-4.85 27.1-4.85L27.1-4.85Q26.8-4.85 26.8-5.75L26.8-5.75 26.8-11.35 34.9-11.35 34.9-18.05Q34.9-21.65 32.87-22.98 30.85-24.3 27.1-24.3L27.1-24.3Q23.35-24.3 21.32-22.98 19.3-21.65 19.3-18.05L19.3-18.05 19.3-8.8Q19.3-5.3 20.12-3.48 20.95-1.65 22.7-1 24.45-0.35 27.1-0.35ZM27.1-0.8L27.1-0.8Q24.55-0.8 22.9-1.43 21.25-2.05 20.47-3.78 19.7-5.5 19.7-8.8L19.7-8.8 19.7-18.05Q19.7-21.4 21.6-22.63 23.5-23.85 27.1-23.85L27.1-23.85Q30.65-23.85 32.55-22.63 34.45-21.4 34.45-18.05L34.45-18.05 34.45-11.8 26.35-11.8 26.35-5.75Q26.35-4.95 26.55-4.67 26.75-4.4 27.1-4.4L27.1-4.4Q27.8-4.4 27.8-5.75L27.8-5.75 27.8-9.75 34.45-9.75 34.45-8.8Q34.45-5.5 33.67-3.78 32.9-2.05 31.27-1.43 29.65-0.8 27.1-0.8ZM26.35-19.05L26.35-14.8 27.8-14.8 27.8-19.05Q27.8-20.3 27.1-20.3L27.1-20.3Q26.75-20.3 26.55-20.05 26.35-19.8 26.35-19.05L26.35-19.05ZM27.4-15.25L26.8-15.25 26.8-19.1Q26.8-19.85 27.1-19.85L27.1-19.85Q27.4-19.85 27.4-19.1L27.4-19.1 27.4-15.25ZM50.95 0L40.74 0 35.95-24.75 45.59-24.75 46.14-20.85 46.55-24.75 55.7-24.75 50.95 0ZM36.99-23.85L41.45-0.9 50.24-0.9 54.64-23.85 47.34-23.85 46.2-13.8 44.89-23.85 36.99-23.85ZM49.89-1.35L41.8-1.35 37.55-23.4 44.49-23.4 46.2-10.55 46.24-9.55 46.3-10.55 47.74-23.4 54.14-23.4 49.89-1.35ZM64.09 0.55L64.09 0.55Q61.09 0.55 59.19-0.18 57.29-0.9 56.37-2.9 55.44-4.9 55.44-8.8L55.44-8.8 55.44-18.05Q55.44-22.1 57.69-23.65 59.94-25.2 64.09-25.2L64.09-25.2Q68.24-25.2 70.49-23.65 72.74-22.1 72.74-18.05L72.74-18.05 72.74-8.8Q72.74-4.9 71.79-2.9 70.84-0.9 68.94-0.18 67.04 0.55 64.09 0.55ZM64.09-0.35L64.09-0.35Q66.79-0.35 68.52-1 70.24-1.65 71.07-3.48 71.89-5.3 71.89-8.8L71.89-8.8 71.89-10.2 64.39-10.2 64.39-5.75Q64.39-5.2 64.32-5.03 64.24-4.85 64.09-4.85L64.09-4.85Q63.79-4.85 63.79-5.75L63.79-5.75 63.79-11.35 71.89-11.35 71.89-18.05Q71.89-21.65 69.87-22.98 67.84-24.3 64.09-24.3L64.09-24.3Q60.34-24.3 58.32-22.98 56.29-21.65 56.29-18.05L56.29-18.05 56.29-8.8Q56.29-5.3 57.12-3.48 57.94-1.65 59.69-1 61.44-0.35 64.09-0.35ZM64.09-0.8L64.09-0.8Q61.54-0.8 59.89-1.43 58.24-2.05 57.47-3.78 56.69-5.5 56.69-8.8L56.69-8.8 56.69-18.05Q56.69-21.4 58.59-22.63 60.49-23.85 64.09-23.85L64.09-23.85Q67.64-23.85 69.54-22.63 71.44-21.4 71.44-18.05L71.44-18.05 71.44-11.8 63.34-11.8 63.34-5.75Q63.34-4.95 63.54-4.67 63.74-4.4 64.09-4.4L64.09-4.4Q64.79-4.4 64.79-5.75L64.79-5.75 64.79-9.75 71.44-9.75 71.44-8.8Q71.44-5.5 70.67-3.78 69.89-2.05 68.27-1.43 66.64-0.8 64.09-0.8ZM63.34-19.05L63.34-14.8 64.79-14.8 64.79-19.05Q64.79-20.3 64.09-20.3L64.09-20.3Q63.74-20.3 63.54-20.05 63.34-19.8 63.34-19.05L63.34-19.05ZM64.39-15.25L63.79-15.25 63.79-19.1Q63.79-19.85 64.09-19.85L64.09-19.85Q64.39-19.85 64.39-19.1L64.39-19.1 64.39-15.25ZM81.09 0L73.29 0 73.29-31.5 81.09-31.5 81.09 0ZM73.99-30.6L73.99-0.9 80.39-0.9 80.39-30.6 73.99-30.6ZM79.99-1.35L74.39-1.35 74.39-30.15 79.99-30.15 79.99-1.35ZM90.54 0.55L90.54 0.55Q87.54 0.55 85.64-0.18 83.74-0.9 82.81-2.9 81.89-4.9 81.89-8.8L81.89-8.8 81.89-18.05Q81.89-22.1 84.14-23.65 86.39-25.2 90.54-25.2L90.54-25.2Q94.69-25.2 96.94-23.65 99.19-22.1 99.19-18.05L99.19-18.05 99.19-8.8Q99.19-4.9 98.24-2.9 97.29-0.9 95.39-0.18 93.49 0.55 90.54 0.55ZM90.54-0.35L90.54-0.35Q93.24-0.35 94.96-1 96.69-1.65 97.51-3.48 98.34-5.3 98.34-8.8L98.34-8.8 98.34-18.05Q98.34-21.65 96.31-22.98 94.29-24.3 90.54-24.3L90.54-24.3Q86.79-24.3 84.76-22.98 82.74-21.65 82.74-18.05L82.74-18.05 82.74-8.8Q82.74-5.3 83.56-3.48 84.39-1.65 86.14-1 87.89-0.35 90.54-0.35ZM90.54-0.8L90.54-0.8Q87.99-0.8 86.34-1.43 84.69-2.05 83.91-3.78 83.14-5.5 83.14-8.8L83.14-8.8 83.14-18.05Q83.14-21.4 85.04-22.63 86.94-23.85 90.54-23.85L90.54-23.85Q94.09-23.85 95.99-22.63 97.89-21.4 97.89-18.05L97.89-18.05 97.89-8.8Q97.89-5.5 97.11-3.78 96.34-2.05 94.71-1.43 93.09-0.8 90.54-0.8ZM90.54-4.4L90.54-4.4Q91.09-4.4 91.19-4.83 91.29-5.25 91.29-5.6L91.29-5.6 91.29-19.1Q91.29-19.8 91.11-20.05 90.94-20.3 90.54-20.3L90.54-20.3Q90.19-20.3 89.99-20.08 89.79-19.85 89.79-19.1L89.79-19.1 89.79-5.6Q89.79-5.1 89.91-4.75 90.04-4.4 90.54-4.4ZM90.54-4.85L90.54-4.85Q90.24-4.85 90.24-5.6L90.24-5.6 90.24-19.1Q90.24-19.85 90.54-19.85L90.54-19.85Q90.84-19.85 90.84-19.1L90.84-19.1 90.84-5.6Q90.84-4.85 90.54-4.85ZM109.19 5.3L99.99 5.3 99.99-24.95 109.14-24.95 109.14-24.75Q109.74-25.05 110.41-25.15 111.09-25.25 111.74-25.25L111.74-25.25Q113.19-25.25 114.44-24.68 115.69-24.1 116.49-22.73 117.29-21.35 117.29-18.85L117.29-18.85 117.29-8.4Q117.29-3.7 115.74-1.73 114.19 0.25 111.29 0.25L111.29 0.25Q109.94 0.25 109.19-0.1L109.19-0.1 109.19 5.3ZM100.84-24.05L100.84 4.4 108.34 4.4 108.34-1.7Q108.84-1.25 109.56-0.95 110.29-0.65 111.29-0.65L111.29-0.65Q113.79-0.65 115.11-2.4 116.44-4.15 116.44-8.4L116.44-8.4 116.44-18.85Q116.44-22.1 114.99-23.25 113.54-24.4 111.54-24.4L111.54-24.4Q110.39-24.4 109.61-24.08 108.84-23.75 108.34-23.3L108.34-23.3 108.34-24.05 100.84-24.05ZM107.89 3.9L101.24 3.9 101.24-23.6 107.89-23.6 107.89-22Q108.34-22.65 109.09-23.3 109.84-23.95 111.54-23.95L111.54-23.95Q113.39-23.95 114.69-22.88 115.99-21.8 115.99-18.85L115.99-18.85 115.99-8.4Q115.99-4.4 114.81-2.75 113.64-1.1 111.29-1.1L111.29-1.1Q109.84-1.1 109.06-1.68 108.29-2.25 107.89-3L107.89-3 107.89 3.9ZM108.64-5L108.64-5Q109.39-5 109.39-6.4L109.39-6.4 109.39-18.4Q109.39-19.6 108.49-19.6L108.49-19.6Q108.09-19.6 107.89-19.5L107.89-19.5 107.89-6.4Q107.89-5 108.64-5ZM108.64-5.45L108.64-5.45Q108.34-5.45 108.34-6.2L108.34-6.2 108.34-19.15 108.54-19.15Q108.94-19.15 108.94-18.5L108.94-18.5 108.94-6.2Q108.94-5.45 108.64-5.45ZM126.63 0.55L126.63 0.55Q123.63 0.55 121.73-0.18 119.83-0.9 118.91-2.9 117.98-4.9 117.98-8.8L117.98-8.8 117.98-18.05Q117.98-22.1 120.23-23.65 122.48-25.2 126.63-25.2L126.63-25.2Q130.78-25.2 133.03-23.65 135.28-22.1 135.28-18.05L135.28-18.05 135.28-8.8Q135.28-4.9 134.33-2.9 133.38-0.9 131.48-0.18 129.58 0.55 126.63 0.55ZM126.63-0.35L126.63-0.35Q129.33-0.35 131.06-1 132.78-1.65 133.61-3.48 134.43-5.3 134.43-8.8L134.43-8.8 134.43-10.2 126.93-10.2 126.93-5.75Q126.93-5.2 126.86-5.03 126.78-4.85 126.63-4.85L126.63-4.85Q126.33-4.85 126.33-5.75L126.33-5.75 126.33-11.35 134.43-11.35 134.43-18.05Q134.43-21.65 132.41-22.98 130.38-24.3 126.63-24.3L126.63-24.3Q122.88-24.3 120.86-22.98 118.83-21.65 118.83-18.05L118.83-18.05 118.83-8.8Q118.83-5.3 119.66-3.48 120.48-1.65 122.23-1 123.98-0.35 126.63-0.35ZM126.63-0.8L126.63-0.8Q124.08-0.8 122.43-1.43 120.78-2.05 120.01-3.78 119.23-5.5 119.23-8.8L119.23-8.8 119.23-18.05Q119.23-21.4 121.13-22.63 123.03-23.85 126.63-23.85L126.63-23.85Q130.18-23.85 132.08-22.63 133.98-21.4 133.98-18.05L133.98-18.05 133.98-11.8 125.88-11.8 125.88-5.75Q125.88-4.95 126.08-4.67 126.28-4.4 126.63-4.4L126.63-4.4Q127.33-4.4 127.33-5.75L127.33-5.75 127.33-9.75 133.98-9.75 133.98-8.8Q133.98-5.5 133.21-3.78 132.43-2.05 130.81-1.43 129.18-0.8 126.63-0.8ZM125.88-19.05L125.88-14.8 127.33-14.8 127.33-19.05Q127.33-20.3 126.63-20.3L126.63-20.3Q126.28-20.3 126.08-20.05 125.88-19.8 125.88-19.05L125.88-19.05ZM126.93-15.25L126.33-15.25 126.33-19.1Q126.33-19.85 126.63-19.85L126.63-19.85Q126.93-19.85 126.93-19.1L126.93-19.1 126.93-15.25ZM144.68 0L135.83 0 135.83-24.75 143.73-24.75 143.73-23.55Q144.88-24.4 146.41-24.68 147.93-24.95 149.53-24.55L149.53-24.55 149.53-16.55Q148.83-16.7 148.26-16.82 147.68-16.95 146.88-16.95L146.88-16.95Q145.48-16.95 145.08-16.28 144.68-15.6 144.68-13.8L144.68-13.8 144.68 0ZM136.63-23.9L136.63-0.9 143.88-0.9 143.88-13.8Q143.88-16.2 144.53-17.03 145.18-17.85 146.88-17.85L146.88-17.85Q147.28-17.85 147.81-17.8 148.33-17.75 148.73-17.65L148.73-17.65 148.73-23.85Q147.08-24.25 145.58-23.7 144.08-23.15 143.23-21.85L143.23-21.85 142.88-23.9 136.63-23.9ZM143.48-1.35L137.08-1.35 137.08-23.45 142.53-23.45 143.03-20.6Q143.63-22.35 145.13-23.1 146.63-23.85 148.28-23.5L148.28-23.5 148.28-18.15Q147.93-18.2 147.58-18.23 147.23-18.25 146.88-18.25L146.88-18.25Q144.98-18.25 144.23-17.32 143.48-16.4 143.48-13.8L143.48-13.8 143.48-1.35Z" opacity="1" transform="matrix(1,0,0,1,0,0)" fill="black" class="slogan-text-1" id="SvgjsPath3034"></path></svg></g></svg></g></svg></g></svg></g></svg></g></svg></g></svg></g></svg></g><defs><mask></mask></defs><mask><g id="SvgjsG3033"><svg viewBox="0 0 512 320" height="320" width="512"><g><svg></svg></g><g><svg viewBox="0 0 512 320" height="320" width="512"><g><path d="M96 160c0-88.366 71.634-160 160-160 88.366 0 160 71.634 160 160 0 88.366-71.634 160-160 160-88.366 0-160-71.634-160-160zM256 300.734c77.725 0 140.734-63.009 140.734-140.734 0-77.725-63.009-140.734-140.734-140.734-77.725 0-140.734 63.009-140.734 140.734 0 77.725 63.009 140.734 140.734 140.734z" fill="black" fill-rule="nonzero" stroke="none" stroke-width="1" stroke-linecap="butt" stroke-linejoin="miter" stroke-miterlimit="10" stroke-dasharray="" stroke-dashoffset="0" font-family="none" font-weight="none" font-size="none" text-anchor="none" style="mix-blend-mode: normal"></path></g><g transform="matrix(1,0,0,1,199.38661341550832,80)"><svg viewBox="0 0 113.22677316898336 160" height="160" width="113.22677316898336"><g><svg viewBox="0 0 113.22677316898336 160" height="160" width="113.22677316898336"><g><svg viewBox="0 0 168.551872 238.1795291450338" height="160" width="113.22677316898336"><g><svg viewBox="0 0 168.551872 238.1795291450338" height="238.1795291450338" width="168.551872"><g id="SvgjsG3032"><svg viewBox="0 0 168.551872 238.1795291450338" height="238.1795291450338" width="168.551872" id="SvgjsSvg3031"><g><svg viewBox="0 0 168.551872 159.0112" height="159.0112" width="168.551872"><g transform="matrix(1,0,0,1,0,0)"><svg width="168.551872" viewBox="-0.8 -33.7 37.099999999999994 35" height="159.0112" data-palette-color="url(#3f897bfa-6aa0-4060-8417-06bfec66697c)"><g class="wordmark-text-0" data-fill-palette-color="primary" id="SvgjsG3030"><path d="M-0.4 1.3L-0.4 1.3Q-0.8 1.3-0.8 0.85L-0.8 0.85Q-0.8 0.75-0.78 0.63-0.75 0.5-0.7 0.35L-0.7 0.35Q-0.35-1 1.13-3.63 2.6-6.25 4.6-9.35L4.6-9.35Q2.6-9.85 1.3-10.85L1.3-10.85Q-0.2-12.05-0.2-13.55L-0.2-13.55Q-0.2-14.7 0.7-15.5L0.7-15.5Q0.9-15.7 1.05-15.7L1.05-15.7Q1.15-15.7 1.15-15.55L1.15-15.55Q1.15-15.25 0.9-15L0.9-15Q0.55-14.5 0.55-13.8L0.55-13.8Q0.55-13.2 0.83-12.6 1.1-12 1.75-11.5L1.75-11.5Q3.15-10.4 5.1-10.1L5.1-10.1Q7-12.95 9.03-15.78 11.05-18.6 12.88-20.95 14.7-23.3 15.95-24.73 17.2-26.15 17.55-26.15L17.55-26.15Q17.9-26.15 18.1-25.78 18.3-25.4 18.3-25.1L18.3-25.1Q18.3-25.1 17.25-23.78 16.2-22.45 14.5-20.25 12.8-18.05 10.8-15.35 8.8-12.65 6.85-9.85L6.85-9.85Q9.5-9.7 12.55-10.3 15.6-10.9 18.57-11.9 21.55-12.9 24.03-14.05 26.5-15.2 27.95-16.15L27.95-16.15Q31-18.2 32.43-20.38 33.85-22.55 33.85-24.45L33.85-24.45Q33.85-26.9 31.68-28.5 29.5-30.1 25.45-30.1L25.45-30.1Q24.3-30.1 22.95-29.95L22.95-29.95Q20.8-29.7 18.1-29.1 15.4-28.5 12.7-27.63 10-26.75 7.75-25.75 5.5-24.75 4.2-23.65L4.2-23.65Q3.35-23 3.65-22.5L3.65-22.5Q3.75-22.35 3.75-22.2L3.75-22.2Q3.75-22.1 3.6-22.13 3.45-22.15 3.3-22.25L3.3-22.25Q2.5-22.75 2.1-23.55 1.7-24.35 1.7-25L1.7-25Q1.7-25.25 1.78-25.45 1.85-25.65 1.9-25.8L1.9-25.8Q2.9-27.2 5.28-28.48 7.65-29.75 10.83-30.8 14-31.85 17.45-32.58 20.9-33.3 24-33.6L24-33.6Q24.6-33.65 25.18-33.68 25.75-33.7 26.25-33.7L26.25-33.7Q31.45-33.7 33.88-31.53 36.3-29.35 36.3-26.25L36.3-26.25Q36.3-23.4 34.27-20.3 32.25-17.2 28.4-14.95L28.4-14.95Q26.85-14.05 24.5-13.03 22.15-12 19.35-11.08 16.55-10.15 13.65-9.55 10.75-8.95 8.1-8.95L8.1-8.95Q7.6-8.95 7.15-8.97 6.7-9 6.25-9.05L6.25-9.05Q4.35-6.3 2.83-3.78 1.3-1.25 0.6 0.5L0.6 0.5Q0.5 0.85 0.18 1.07-0.15 1.3-0.4 1.3Z" fill="black"></path></g></svg></g></svg></g><g transform="matrix(1,0,0,1,0,196.5499280512)"><svg viewBox="0 0 168.551872 41.62960109383379" height="41.62960109383379" width="168.551872"><g transform="matrix(1,0,0,1,0,0)"><svg width="168.551872" viewBox="0.35 -31.55 149.18 36.85" height="41.62960109383379" data-palette-color="url(#c8ab3f05-8c3b-4570-bd5f-81a71baeb04c)"><path d="M7.45 0.3L7.45 0.3Q5.05 0.3 3.48-0.38 1.9-1.05 1.13-2.93 0.35-4.8 0.35-8.4L0.35-8.4 0.35-19.25Q0.35-21.65 1.23-22.98 2.1-24.3 3.43-24.83 4.75-25.35 6.1-25.35L6.1-25.35Q7.55-25.35 8.45-24.95L8.45-24.95 8.45-31.55 17.65-31.55 17.65 0 11 0 10.75-0.8Q10.2-0.35 9.38-0.03 8.55 0.3 7.45 0.3ZM7.45-0.6L7.45-0.6Q8.9-0.6 9.78-1.23 10.65-1.85 11.1-2.45L11.1-2.45 11.6-0.9 16.8-0.9 16.8-30.6 9.3-30.6 9.3-23.35Q8.8-23.85 8.05-24.15 7.3-24.45 6.1-24.45L6.1-24.45Q4.95-24.45 3.8-24 2.65-23.55 1.93-22.43 1.2-21.3 1.2-19.25L1.2-19.25 1.2-8.4Q1.2-5.15 1.88-3.48 2.55-1.8 3.93-1.2 5.3-0.6 7.45-0.6ZM7.45-1.05L7.45-1.05Q5.5-1.05 4.2-1.6 2.9-2.15 2.27-3.75 1.65-5.35 1.65-8.4L1.65-8.4 1.65-19.25Q1.65-21.1 2.33-22.1 3-23.1 4.03-23.53 5.05-23.95 6.1-23.95L6.1-23.95Q7.8-23.95 8.58-23.38 9.35-22.8 9.75-22.15L9.75-22.15 9.75-30.15 16.35-30.15 16.35-1.35 11.9-1.35 11.2-3.5Q10.9-2.8 9.98-1.93 9.05-1.05 7.45-1.05ZM9-5.05L9-5.05Q9.75-5.05 9.75-6.4L9.75-6.4 9.75-19.9Q9.6-19.95 9.43-19.98 9.25-20 9-20L9-20Q8.3-20 8.3-18.65L8.3-18.65 8.3-6.4Q8.3-5.05 9-5.05ZM9-5.5L9-5.5Q8.7-5.5 8.7-6.4L8.7-6.4 8.7-18.65Q8.7-19.55 9-19.55L9-19.55 9.3-19.55 9.3-6.4Q9.3-5.5 9-5.5ZM27.1 0.55L27.1 0.55Q24.1 0.55 22.2-0.18 20.3-0.9 19.37-2.9 18.45-4.9 18.45-8.8L18.45-8.8 18.45-18.05Q18.45-22.1 20.7-23.65 22.95-25.2 27.1-25.2L27.1-25.2Q31.25-25.2 33.5-23.65 35.75-22.1 35.75-18.05L35.75-18.05 35.75-8.8Q35.75-4.9 34.8-2.9 33.85-0.9 31.95-0.18 30.05 0.55 27.1 0.55ZM27.1-0.35L27.1-0.35Q29.8-0.35 31.52-1 33.25-1.65 34.07-3.48 34.9-5.3 34.9-8.8L34.9-8.8 34.9-10.2 27.4-10.2 27.4-5.75Q27.4-5.2 27.32-5.03 27.25-4.85 27.1-4.85L27.1-4.85Q26.8-4.85 26.8-5.75L26.8-5.75 26.8-11.35 34.9-11.35 34.9-18.05Q34.9-21.65 32.87-22.98 30.85-24.3 27.1-24.3L27.1-24.3Q23.35-24.3 21.32-22.98 19.3-21.65 19.3-18.05L19.3-18.05 19.3-8.8Q19.3-5.3 20.12-3.48 20.95-1.65 22.7-1 24.45-0.35 27.1-0.35ZM27.1-0.8L27.1-0.8Q24.55-0.8 22.9-1.43 21.25-2.05 20.47-3.78 19.7-5.5 19.7-8.8L19.7-8.8 19.7-18.05Q19.7-21.4 21.6-22.63 23.5-23.85 27.1-23.85L27.1-23.85Q30.65-23.85 32.55-22.63 34.45-21.4 34.45-18.05L34.45-18.05 34.45-11.8 26.35-11.8 26.35-5.75Q26.35-4.95 26.55-4.67 26.75-4.4 27.1-4.4L27.1-4.4Q27.8-4.4 27.8-5.75L27.8-5.75 27.8-9.75 34.45-9.75 34.45-8.8Q34.45-5.5 33.67-3.78 32.9-2.05 31.27-1.43 29.65-0.8 27.1-0.8ZM26.35-19.05L26.35-14.8 27.8-14.8 27.8-19.05Q27.8-20.3 27.1-20.3L27.1-20.3Q26.75-20.3 26.55-20.05 26.35-19.8 26.35-19.05L26.35-19.05ZM27.4-15.25L26.8-15.25 26.8-19.1Q26.8-19.85 27.1-19.85L27.1-19.85Q27.4-19.85 27.4-19.1L27.4-19.1 27.4-15.25ZM50.95 0L40.74 0 35.95-24.75 45.59-24.75 46.14-20.85 46.55-24.75 55.7-24.75 50.95 0ZM36.99-23.85L41.45-0.9 50.24-0.9 54.64-23.85 47.34-23.85 46.2-13.8 44.89-23.85 36.99-23.85ZM49.89-1.35L41.8-1.35 37.55-23.4 44.49-23.4 46.2-10.55 46.24-9.55 46.3-10.55 47.74-23.4 54.14-23.4 49.89-1.35ZM64.09 0.55L64.09 0.55Q61.09 0.55 59.19-0.18 57.29-0.9 56.37-2.9 55.44-4.9 55.44-8.8L55.44-8.8 55.44-18.05Q55.44-22.1 57.69-23.65 59.94-25.2 64.09-25.2L64.09-25.2Q68.24-25.2 70.49-23.65 72.74-22.1 72.74-18.05L72.74-18.05 72.74-8.8Q72.74-4.9 71.79-2.9 70.84-0.9 68.94-0.18 67.04 0.55 64.09 0.55ZM64.09-0.35L64.09-0.35Q66.79-0.35 68.52-1 70.24-1.65 71.07-3.48 71.89-5.3 71.89-8.8L71.89-8.8 71.89-10.2 64.39-10.2 64.39-5.75Q64.39-5.2 64.32-5.03 64.24-4.85 64.09-4.85L64.09-4.85Q63.79-4.85 63.79-5.75L63.79-5.75 63.79-11.35 71.89-11.35 71.89-18.05Q71.89-21.65 69.87-22.98 67.84-24.3 64.09-24.3L64.09-24.3Q60.34-24.3 58.32-22.98 56.29-21.65 56.29-18.05L56.29-18.05 56.29-8.8Q56.29-5.3 57.12-3.48 57.94-1.65 59.69-1 61.44-0.35 64.09-0.35ZM64.09-0.8L64.09-0.8Q61.54-0.8 59.89-1.43 58.24-2.05 57.47-3.78 56.69-5.5 56.69-8.8L56.69-8.8 56.69-18.05Q56.69-21.4 58.59-22.63 60.49-23.85 64.09-23.85L64.09-23.85Q67.64-23.85 69.54-22.63 71.44-21.4 71.44-18.05L71.44-18.05 71.44-11.8 63.34-11.8 63.34-5.75Q63.34-4.95 63.54-4.67 63.74-4.4 64.09-4.4L64.09-4.4Q64.79-4.4 64.79-5.75L64.79-5.75 64.79-9.75 71.44-9.75 71.44-8.8Q71.44-5.5 70.67-3.78 69.89-2.05 68.27-1.43 66.64-0.8 64.09-0.8ZM63.34-19.05L63.34-14.8 64.79-14.8 64.79-19.05Q64.79-20.3 64.09-20.3L64.09-20.3Q63.74-20.3 63.54-20.05 63.34-19.8 63.34-19.05L63.34-19.05ZM64.39-15.25L63.79-15.25 63.79-19.1Q63.79-19.85 64.09-19.85L64.09-19.85Q64.39-19.85 64.39-19.1L64.39-19.1 64.39-15.25ZM81.09 0L73.29 0 73.29-31.5 81.09-31.5 81.09 0ZM73.99-30.6L73.99-0.9 80.39-0.9 80.39-30.6 73.99-30.6ZM79.99-1.35L74.39-1.35 74.39-30.15 79.99-30.15 79.99-1.35ZM90.54 0.55L90.54 0.55Q87.54 0.55 85.64-0.18 83.74-0.9 82.81-2.9 81.89-4.9 81.89-8.8L81.89-8.8 81.89-18.05Q81.89-22.1 84.14-23.65 86.39-25.2 90.54-25.2L90.54-25.2Q94.69-25.2 96.94-23.65 99.19-22.1 99.19-18.05L99.19-18.05 99.19-8.8Q99.19-4.9 98.24-2.9 97.29-0.9 95.39-0.18 93.49 0.55 90.54 0.55ZM90.54-0.35L90.54-0.35Q93.24-0.35 94.96-1 96.69-1.65 97.51-3.48 98.34-5.3 98.34-8.8L98.34-8.8 98.34-18.05Q98.34-21.65 96.31-22.98 94.29-24.3 90.54-24.3L90.54-24.3Q86.79-24.3 84.76-22.98 82.74-21.65 82.74-18.05L82.74-18.05 82.74-8.8Q82.74-5.3 83.56-3.48 84.39-1.65 86.14-1 87.89-0.35 90.54-0.35ZM90.54-0.8L90.54-0.8Q87.99-0.8 86.34-1.43 84.69-2.05 83.91-3.78 83.14-5.5 83.14-8.8L83.14-8.8 83.14-18.05Q83.14-21.4 85.04-22.63 86.94-23.85 90.54-23.85L90.54-23.85Q94.09-23.85 95.99-22.63 97.89-21.4 97.89-18.05L97.89-18.05 97.89-8.8Q97.89-5.5 97.11-3.78 96.34-2.05 94.71-1.43 93.09-0.8 90.54-0.8ZM90.54-4.4L90.54-4.4Q91.09-4.4 91.19-4.83 91.29-5.25 91.29-5.6L91.29-5.6 91.29-19.1Q91.29-19.8 91.11-20.05 90.94-20.3 90.54-20.3L90.54-20.3Q90.19-20.3 89.99-20.08 89.79-19.85 89.79-19.1L89.79-19.1 89.79-5.6Q89.79-5.1 89.91-4.75 90.04-4.4 90.54-4.4ZM90.54-4.85L90.54-4.85Q90.24-4.85 90.24-5.6L90.24-5.6 90.24-19.1Q90.24-19.85 90.54-19.85L90.54-19.85Q90.84-19.85 90.84-19.1L90.84-19.1 90.84-5.6Q90.84-4.85 90.54-4.85ZM109.19 5.3L99.99 5.3 99.99-24.95 109.14-24.95 109.14-24.75Q109.74-25.05 110.41-25.15 111.09-25.25 111.74-25.25L111.74-25.25Q113.19-25.25 114.44-24.68 115.69-24.1 116.49-22.73 117.29-21.35 117.29-18.85L117.29-18.85 117.29-8.4Q117.29-3.7 115.74-1.73 114.19 0.25 111.29 0.25L111.29 0.25Q109.94 0.25 109.19-0.1L109.19-0.1 109.19 5.3ZM100.84-24.05L100.84 4.4 108.34 4.4 108.34-1.7Q108.84-1.25 109.56-0.95 110.29-0.65 111.29-0.65L111.29-0.65Q113.79-0.65 115.11-2.4 116.44-4.15 116.44-8.4L116.44-8.4 116.44-18.85Q116.44-22.1 114.99-23.25 113.54-24.4 111.54-24.4L111.54-24.4Q110.39-24.4 109.61-24.08 108.84-23.75 108.34-23.3L108.34-23.3 108.34-24.05 100.84-24.05ZM107.89 3.9L101.24 3.9 101.24-23.6 107.89-23.6 107.89-22Q108.34-22.65 109.09-23.3 109.84-23.95 111.54-23.95L111.54-23.95Q113.39-23.95 114.69-22.88 115.99-21.8 115.99-18.85L115.99-18.85 115.99-8.4Q115.99-4.4 114.81-2.75 113.64-1.1 111.29-1.1L111.29-1.1Q109.84-1.1 109.06-1.68 108.29-2.25 107.89-3L107.89-3 107.89 3.9ZM108.64-5L108.64-5Q109.39-5 109.39-6.4L109.39-6.4 109.39-18.4Q109.39-19.6 108.49-19.6L108.49-19.6Q108.09-19.6 107.89-19.5L107.89-19.5 107.89-6.4Q107.89-5 108.64-5ZM108.64-5.45L108.64-5.45Q108.34-5.45 108.34-6.2L108.34-6.2 108.34-19.15 108.54-19.15Q108.94-19.15 108.94-18.5L108.94-18.5 108.94-6.2Q108.94-5.45 108.64-5.45ZM126.63 0.55L126.63 0.55Q123.63 0.55 121.73-0.18 119.83-0.9 118.91-2.9 117.98-4.9 117.98-8.8L117.98-8.8 117.98-18.05Q117.98-22.1 120.23-23.65 122.48-25.2 126.63-25.2L126.63-25.2Q130.78-25.2 133.03-23.65 135.28-22.1 135.28-18.05L135.28-18.05 135.28-8.8Q135.28-4.9 134.33-2.9 133.38-0.9 131.48-0.18 129.58 0.55 126.63 0.55ZM126.63-0.35L126.63-0.35Q129.33-0.35 131.06-1 132.78-1.65 133.61-3.48 134.43-5.3 134.43-8.8L134.43-8.8 134.43-10.2 126.93-10.2 126.93-5.75Q126.93-5.2 126.86-5.03 126.78-4.85 126.63-4.85L126.63-4.85Q126.33-4.85 126.33-5.75L126.33-5.75 126.33-11.35 134.43-11.35 134.43-18.05Q134.43-21.65 132.41-22.98 130.38-24.3 126.63-24.3L126.63-24.3Q122.88-24.3 120.86-22.98 118.83-21.65 118.83-18.05L118.83-18.05 118.83-8.8Q118.83-5.3 119.66-3.48 120.48-1.65 122.23-1 123.98-0.35 126.63-0.35ZM126.63-0.8L126.63-0.8Q124.08-0.8 122.43-1.43 120.78-2.05 120.01-3.78 119.23-5.5 119.23-8.8L119.23-8.8 119.23-18.05Q119.23-21.4 121.13-22.63 123.03-23.85 126.63-23.85L126.63-23.85Q130.18-23.85 132.08-22.63 133.98-21.4 133.98-18.05L133.98-18.05 133.98-11.8 125.88-11.8 125.88-5.75Q125.88-4.95 126.08-4.67 126.28-4.4 126.63-4.4L126.63-4.4Q127.33-4.4 127.33-5.75L127.33-5.75 127.33-9.75 133.98-9.75 133.98-8.8Q133.98-5.5 133.21-3.78 132.43-2.05 130.81-1.43 129.18-0.8 126.63-0.8ZM125.88-19.05L125.88-14.8 127.33-14.8 127.33-19.05Q127.33-20.3 126.63-20.3L126.63-20.3Q126.28-20.3 126.08-20.05 125.88-19.8 125.88-19.05L125.88-19.05ZM126.93-15.25L126.33-15.25 126.33-19.1Q126.33-19.85 126.63-19.85L126.63-19.85Q126.93-19.85 126.93-19.1L126.93-19.1 126.93-15.25ZM144.68 0L135.83 0 135.83-24.75 143.73-24.75 143.73-23.55Q144.88-24.4 146.41-24.68 147.93-24.95 149.53-24.55L149.53-24.55 149.53-16.55Q148.83-16.7 148.26-16.82 147.68-16.95 146.88-16.95L146.88-16.95Q145.48-16.95 145.08-16.28 144.68-15.6 144.68-13.8L144.68-13.8 144.68 0ZM136.63-23.9L136.63-0.9 143.88-0.9 143.88-13.8Q143.88-16.2 144.53-17.03 145.18-17.85 146.88-17.85L146.88-17.85Q147.28-17.85 147.81-17.8 148.33-17.75 148.73-17.65L148.73-17.65 148.73-23.85Q147.08-24.25 145.58-23.7 144.08-23.15 143.23-21.85L143.23-21.85 142.88-23.9 136.63-23.9ZM143.48-1.35L137.08-1.35 137.08-23.45 142.53-23.45 143.03-20.6Q143.63-22.35 145.13-23.1 146.63-23.85 148.28-23.5L148.28-23.5 148.28-18.15Q147.93-18.2 147.58-18.23 147.23-18.25 146.88-18.25L146.88-18.25Q144.98-18.25 144.23-17.32 143.48-16.4 143.48-13.8L143.48-13.8 143.48-1.35Z" opacity="1" transform="matrix(1,0,0,1,0,0)" fill="black" class="slogan-text-1" id="SvgjsPath3029"></path></svg></g></svg></g></svg></g></svg></g></svg></g></svg></g></svg></g></svg></g><defs><mask></mask></defs></svg><rect width="512" height="320" fill="black" stroke="none" visibility="hidden"></rect></g></mask></svg><rect width="512" height="320" fill="black" stroke="none" visibility="hidden"></rect></g></mask></svg><rect width="512" height="320" fill="black" stroke="none" visibility="hidden"></rect></g></mask><linearGradient x1="0.054" x2="0.941" y1="0.5" y2="0.5" id="bead6968-d6b5-46ec-b2ed-573dbd6d9973"><stop stop-color="#0f3054" offset="0"></stop><stop stop-color="#3b8dcb" offset="0.498"></stop><stop stop-color="#0f3054" offset="1"></stop></linearGradient></svg><rect width="512" height="320" fill="none" stroke="none" visibility="hidden"></rect></g></svg></g></svg>